<?xml version="1.0" encoding="utf-8" standalone="no"?>
<!DOCTYPE svg PUBLIC "-//W3C//DTD SVG 1.1//EN"
  "http://www.w3.org/Graphics/SVG/1.1/DTD/svg11.dtd">
<svg height="576pt" version="1.1" viewBox="0 0 576 576" width="576pt" xmlns="http://www.w3.org/2000/svg" xmlns:xlink="http://www.w3.org/1999/xlink">
 <metadata>
  <rdf:RDF xmlns:cc="http://creativecommons.org/ns#" xmlns:dc="http://purl.org/dc/elements/1.1/" xmlns:rdf="http://www.w3.org/1999/02/22-rdf-syntax-ns#">
   <cc:Work>
    <dc:type rdf:resource="http://purl.org/dc/dcmitype/StillImage"/>
    <dc:date>1980-01-01T00:00:00+00:00</dc:date>
    <dc:format>image/svg+xml</dc:format>
    <dc:creator>
     <cc:Agent>
      <dc:title>Matplotlib v3.4.2, https://matplotlib.org/</dc:title>
     </cc:Agent>
    </dc:creator>
   </cc:Work>
  </rdf:RDF>
 </metadata>
 <defs>
  <style type="text/css">*{stroke-linecap:butt;stroke-linejoin:round;}</style>
 </defs>
 <g id="figure_1">
  <g id="patch_1">
   <path d="M 0 576 
L 576 576 
L 576 0 
L 0 0 
z
" style="fill:none;"/>
  </g>
  <g id="axes_1">
   <g id="patch_2">
    <path d="M 72 266.792727 
L 518.4 266.792727 
L 518.4 69.12 
L 72 69.12 
z
" style="fill:#ffffff;"/>
   </g>
   <g id="matplotlib.axis_1"/>
   <g id="matplotlib.axis_2"/>
   <g id="line2d_1">
    <path clip-path="url(#p3db863af40)" d="M 92.290909 87.60424 
L 106.284639 85.594461 
L 120.27837 83.700349 
L 134.2721 81.972964 
L 148.265831 80.472925 
L 162.259561 79.271363 
L 176.253292 78.450706 
L 190.247022 78.105124 
L 204.240752 78.340464 
L 218.234483 79.273371 
L 232.228213 81.029265 
L 246.221944 83.738709 
L 260.215674 87.531643 
L 274.209404 92.528853 
L 288.203135 98.830004 
L 302.196865 106.497597 
L 316.190596 115.536385 
L 330.184326 125.868128 
L 344.178056 137.302335 
L 358.171787 149.504756 
L 372.165517 161.967203 
L 386.159248 173.984695 
L 400.152978 184.64904 
L 414.146708 192.871427 
L 428.140439 197.449652 
L 442.134169 197.196763 
L 456.1279 191.144751 
L 470.12163 178.825897 
L 484.115361 160.611557 
L 498.109091 138.050147 
" style="fill:none;stroke:#1f77b4;stroke-linecap:square;stroke-width:3;"/>
    <defs>
     <path d="M 0 3 
C 0.795609 3 1.55874 2.683901 2.12132 2.12132 
C 2.683901 1.55874 3 0.795609 3 0 
C 3 -0.795609 2.683901 -1.55874 2.12132 -2.12132 
C 1.55874 -2.683901 0.795609 -3 0 -3 
C -0.795609 -3 -1.55874 -2.683901 -2.12132 -2.12132 
C -2.683901 -1.55874 -3 -0.795609 -3 0 
C -3 0.795609 -2.683901 1.55874 -2.12132 2.12132 
C -1.55874 2.683901 -0.795609 3 0 3 
z
" id="m844c352c39" style="stroke:#1f77b4;"/>
    </defs>
    <g clip-path="url(#p3db863af40)">
     <use style="fill:#1f77b4;stroke:#1f77b4;" x="92.290909" xlink:href="#m844c352c39" y="87.60424"/>
     <use style="fill:#1f77b4;stroke:#1f77b4;" x="106.284639" xlink:href="#m844c352c39" y="85.594461"/>
     <use style="fill:#1f77b4;stroke:#1f77b4;" x="120.27837" xlink:href="#m844c352c39" y="83.700349"/>
     <use style="fill:#1f77b4;stroke:#1f77b4;" x="134.2721" xlink:href="#m844c352c39" y="81.972964"/>
     <use style="fill:#1f77b4;stroke:#1f77b4;" x="148.265831" xlink:href="#m844c352c39" y="80.472925"/>
     <use style="fill:#1f77b4;stroke:#1f77b4;" x="162.259561" xlink:href="#m844c352c39" y="79.271363"/>
     <use style="fill:#1f77b4;stroke:#1f77b4;" x="176.253292" xlink:href="#m844c352c39" y="78.450706"/>
     <use style="fill:#1f77b4;stroke:#1f77b4;" x="190.247022" xlink:href="#m844c352c39" y="78.105124"/>
     <use style="fill:#1f77b4;stroke:#1f77b4;" x="204.240752" xlink:href="#m844c352c39" y="78.340464"/>
     <use style="fill:#1f77b4;stroke:#1f77b4;" x="218.234483" xlink:href="#m844c352c39" y="79.273371"/>
     <use style="fill:#1f77b4;stroke:#1f77b4;" x="232.228213" xlink:href="#m844c352c39" y="81.029265"/>
     <use style="fill:#1f77b4;stroke:#1f77b4;" x="246.221944" xlink:href="#m844c352c39" y="83.738709"/>
     <use style="fill:#1f77b4;stroke:#1f77b4;" x="260.215674" xlink:href="#m844c352c39" y="87.531643"/>
     <use style="fill:#1f77b4;stroke:#1f77b4;" x="274.209404" xlink:href="#m844c352c39" y="92.528853"/>
     <use style="fill:#1f77b4;stroke:#1f77b4;" x="288.203135" xlink:href="#m844c352c39" y="98.830004"/>
     <use style="fill:#1f77b4;stroke:#1f77b4;" x="302.196865" xlink:href="#m844c352c39" y="106.497597"/>
     <use style="fill:#1f77b4;stroke:#1f77b4;" x="316.190596" xlink:href="#m844c352c39" y="115.536385"/>
     <use style="fill:#1f77b4;stroke:#1f77b4;" x="330.184326" xlink:href="#m844c352c39" y="125.868128"/>
     <use style="fill:#1f77b4;stroke:#1f77b4;" x="344.178056" xlink:href="#m844c352c39" y="137.302335"/>
     <use style="fill:#1f77b4;stroke:#1f77b4;" x="358.171787" xlink:href="#m844c352c39" y="149.504756"/>
     <use style="fill:#1f77b4;stroke:#1f77b4;" x="372.165517" xlink:href="#m844c352c39" y="161.967203"/>
     <use style="fill:#1f77b4;stroke:#1f77b4;" x="386.159248" xlink:href="#m844c352c39" y="173.984695"/>
     <use style="fill:#1f77b4;stroke:#1f77b4;" x="400.152978" xlink:href="#m844c352c39" y="184.64904"/>
     <use style="fill:#1f77b4;stroke:#1f77b4;" x="414.146708" xlink:href="#m844c352c39" y="192.871427"/>
     <use style="fill:#1f77b4;stroke:#1f77b4;" x="428.140439" xlink:href="#m844c352c39" y="197.449652"/>
     <use style="fill:#1f77b4;stroke:#1f77b4;" x="442.134169" xlink:href="#m844c352c39" y="197.196763"/>
     <use style="fill:#1f77b4;stroke:#1f77b4;" x="456.1279" xlink:href="#m844c352c39" y="191.144751"/>
     <use style="fill:#1f77b4;stroke:#1f77b4;" x="470.12163" xlink:href="#m844c352c39" y="178.825897"/>
     <use style="fill:#1f77b4;stroke:#1f77b4;" x="484.115361" xlink:href="#m844c352c39" y="160.611557"/>
     <use style="fill:#1f77b4;stroke:#1f77b4;" x="498.109091" xlink:href="#m844c352c39" y="138.050147"/>
    </g>
   </g>
   <g id="line2d_2">
    <path clip-path="url(#p3db863af40)" d="M 92.290909 147.553909 
L 106.284639 142.520367 
L 120.27837 139.323053 
L 134.2721 138.067788 
L 148.265831 138.796118 
L 162.259561 141.483939 
L 176.253292 146.04229 
L 190.247022 152.320301 
L 204.240752 160.110186 
L 218.234483 169.154121 
L 232.228213 179.152774 
L 246.221944 189.775215 
L 260.215674 200.669869 
L 274.209404 211.476152 
L 288.203135 221.836402 
L 302.196865 231.407723 
L 316.190596 239.873328 
L 330.184326 246.953028 
L 344.178056 252.412503 
L 358.171787 256.071057 
L 372.165517 257.807603 
L 386.159248 257.564666 
L 400.152978 255.350285 
L 414.146708 251.237751 
L 428.140439 245.363179 
L 442.134169 237.921001 
L 456.1279 229.157535 
L 470.12163 219.362829 
L 484.115361 208.861062 
L 498.109091 197.999816 
" style="fill:none;stroke:#ff7f0e;stroke-linecap:square;stroke-width:3;"/>
    <defs>
     <path d="M 0 3 
C 0.795609 3 1.55874 2.683901 2.12132 2.12132 
C 2.683901 1.55874 3 0.795609 3 0 
C 3 -0.795609 2.683901 -1.55874 2.12132 -2.12132 
C 1.55874 -2.683901 0.795609 -3 0 -3 
C -0.795609 -3 -1.55874 -2.683901 -2.12132 -2.12132 
C -2.683901 -1.55874 -3 -0.795609 -3 0 
C -3 0.795609 -2.683901 1.55874 -2.12132 2.12132 
C -1.55874 2.683901 -0.795609 3 0 3 
z
" id="mb0dc731aa7" style="stroke:#ff7f0e;"/>
    </defs>
    <g clip-path="url(#p3db863af40)">
     <use style="fill:#ff7f0e;stroke:#ff7f0e;" x="92.290909" xlink:href="#mb0dc731aa7" y="147.553909"/>
     <use style="fill:#ff7f0e;stroke:#ff7f0e;" x="106.284639" xlink:href="#mb0dc731aa7" y="142.520367"/>
     <use style="fill:#ff7f0e;stroke:#ff7f0e;" x="120.27837" xlink:href="#mb0dc731aa7" y="139.323053"/>
     <use style="fill:#ff7f0e;stroke:#ff7f0e;" x="134.2721" xlink:href="#mb0dc731aa7" y="138.067788"/>
     <use style="fill:#ff7f0e;stroke:#ff7f0e;" x="148.265831" xlink:href="#mb0dc731aa7" y="138.796118"/>
     <use style="fill:#ff7f0e;stroke:#ff7f0e;" x="162.259561" xlink:href="#mb0dc731aa7" y="141.483939"/>
     <use style="fill:#ff7f0e;stroke:#ff7f0e;" x="176.253292" xlink:href="#mb0dc731aa7" y="146.04229"/>
     <use style="fill:#ff7f0e;stroke:#ff7f0e;" x="190.247022" xlink:href="#mb0dc731aa7" y="152.320301"/>
     <use style="fill:#ff7f0e;stroke:#ff7f0e;" x="204.240752" xlink:href="#mb0dc731aa7" y="160.110186"/>
     <use style="fill:#ff7f0e;stroke:#ff7f0e;" x="218.234483" xlink:href="#mb0dc731aa7" y="169.154121"/>
     <use style="fill:#ff7f0e;stroke:#ff7f0e;" x="232.228213" xlink:href="#mb0dc731aa7" y="179.152774"/>
     <use style="fill:#ff7f0e;stroke:#ff7f0e;" x="246.221944" xlink:href="#mb0dc731aa7" y="189.775215"/>
     <use style="fill:#ff7f0e;stroke:#ff7f0e;" x="260.215674" xlink:href="#mb0dc731aa7" y="200.669869"/>
     <use style="fill:#ff7f0e;stroke:#ff7f0e;" x="274.209404" xlink:href="#mb0dc731aa7" y="211.476152"/>
     <use style="fill:#ff7f0e;stroke:#ff7f0e;" x="288.203135" xlink:href="#mb0dc731aa7" y="221.836402"/>
     <use style="fill:#ff7f0e;stroke:#ff7f0e;" x="302.196865" xlink:href="#mb0dc731aa7" y="231.407723"/>
     <use style="fill:#ff7f0e;stroke:#ff7f0e;" x="316.190596" xlink:href="#mb0dc731aa7" y="239.873328"/>
     <use style="fill:#ff7f0e;stroke:#ff7f0e;" x="330.184326" xlink:href="#mb0dc731aa7" y="246.953028"/>
     <use style="fill:#ff7f0e;stroke:#ff7f0e;" x="344.178056" xlink:href="#mb0dc731aa7" y="252.412503"/>
     <use style="fill:#ff7f0e;stroke:#ff7f0e;" x="358.171787" xlink:href="#mb0dc731aa7" y="256.071057"/>
     <use style="fill:#ff7f0e;stroke:#ff7f0e;" x="372.165517" xlink:href="#mb0dc731aa7" y="257.807603"/>
     <use style="fill:#ff7f0e;stroke:#ff7f0e;" x="386.159248" xlink:href="#mb0dc731aa7" y="257.564666"/>
     <use style="fill:#ff7f0e;stroke:#ff7f0e;" x="400.152978" xlink:href="#mb0dc731aa7" y="255.350285"/>
     <use style="fill:#ff7f0e;stroke:#ff7f0e;" x="414.146708" xlink:href="#mb0dc731aa7" y="251.237751"/>
     <use style="fill:#ff7f0e;stroke:#ff7f0e;" x="428.140439" xlink:href="#mb0dc731aa7" y="245.363179"/>
     <use style="fill:#ff7f0e;stroke:#ff7f0e;" x="442.134169" xlink:href="#mb0dc731aa7" y="237.921001"/>
     <use style="fill:#ff7f0e;stroke:#ff7f0e;" x="456.1279" xlink:href="#mb0dc731aa7" y="229.157535"/>
     <use style="fill:#ff7f0e;stroke:#ff7f0e;" x="470.12163" xlink:href="#mb0dc731aa7" y="219.362829"/>
     <use style="fill:#ff7f0e;stroke:#ff7f0e;" x="484.115361" xlink:href="#mb0dc731aa7" y="208.861062"/>
     <use style="fill:#ff7f0e;stroke:#ff7f0e;" x="498.109091" xlink:href="#mb0dc731aa7" y="197.999816"/>
    </g>
   </g>
   <g id="line2d_3">
    <path clip-path="url(#p3db863af40)" d="M 92.290909 87.60424 
L 92.290909 147.553909 
" style="fill:none;stroke:#ff0000;stroke-dasharray:7.4,3.2;stroke-dashoffset:0;stroke-opacity:0.5;stroke-width:2;"/>
   </g>
   <g id="line2d_4">
    <path clip-path="url(#p3db863af40)" d="M 106.284639 85.594461 
L 106.284639 142.520367 
" style="fill:none;stroke:#ff0000;stroke-dasharray:7.4,3.2;stroke-dashoffset:0;stroke-opacity:0.5;stroke-width:2;"/>
   </g>
   <g id="line2d_5">
    <path clip-path="url(#p3db863af40)" d="M 120.27837 83.700349 
L 120.27837 139.323053 
" style="fill:none;stroke:#ff0000;stroke-dasharray:7.4,3.2;stroke-dashoffset:0;stroke-opacity:0.5;stroke-width:2;"/>
   </g>
   <g id="line2d_6">
    <path clip-path="url(#p3db863af40)" d="M 134.2721 81.972964 
L 134.2721 138.067788 
" style="fill:none;stroke:#ff0000;stroke-dasharray:7.4,3.2;stroke-dashoffset:0;stroke-opacity:0.5;stroke-width:2;"/>
   </g>
   <g id="line2d_7">
    <path clip-path="url(#p3db863af40)" d="M 148.265831 80.472925 
L 148.265831 138.796118 
" style="fill:none;stroke:#ff0000;stroke-dasharray:7.4,3.2;stroke-dashoffset:0;stroke-opacity:0.5;stroke-width:2;"/>
   </g>
   <g id="line2d_8">
    <path clip-path="url(#p3db863af40)" d="M 162.259561 79.271363 
L 162.259561 141.483939 
" style="fill:none;stroke:#ff0000;stroke-dasharray:7.4,3.2;stroke-dashoffset:0;stroke-opacity:0.5;stroke-width:2;"/>
   </g>
   <g id="line2d_9">
    <path clip-path="url(#p3db863af40)" d="M 176.253292 78.450706 
L 176.253292 146.04229 
" style="fill:none;stroke:#ff0000;stroke-dasharray:7.4,3.2;stroke-dashoffset:0;stroke-opacity:0.5;stroke-width:2;"/>
   </g>
   <g id="line2d_10">
    <path clip-path="url(#p3db863af40)" d="M 190.247022 78.105124 
L 190.247022 152.320301 
" style="fill:none;stroke:#ff0000;stroke-dasharray:7.4,3.2;stroke-dashoffset:0;stroke-opacity:0.5;stroke-width:2;"/>
   </g>
   <g id="line2d_11">
    <path clip-path="url(#p3db863af40)" d="M 204.240752 78.340464 
L 204.240752 160.110186 
" style="fill:none;stroke:#ff0000;stroke-dasharray:7.4,3.2;stroke-dashoffset:0;stroke-opacity:0.5;stroke-width:2;"/>
   </g>
   <g id="line2d_12">
    <path clip-path="url(#p3db863af40)" d="M 218.234483 79.273371 
L 218.234483 169.154121 
" style="fill:none;stroke:#ff0000;stroke-dasharray:7.4,3.2;stroke-dashoffset:0;stroke-opacity:0.5;stroke-width:2;"/>
   </g>
   <g id="line2d_13">
    <path clip-path="url(#p3db863af40)" d="M 232.228213 81.029265 
L 232.228213 179.152774 
" style="fill:none;stroke:#ff0000;stroke-dasharray:7.4,3.2;stroke-dashoffset:0;stroke-opacity:0.5;stroke-width:2;"/>
   </g>
   <g id="line2d_14">
    <path clip-path="url(#p3db863af40)" d="M 246.221944 83.738709 
L 246.221944 189.775215 
" style="fill:none;stroke:#ff0000;stroke-dasharray:7.4,3.2;stroke-dashoffset:0;stroke-opacity:0.5;stroke-width:2;"/>
   </g>
   <g id="line2d_15">
    <path clip-path="url(#p3db863af40)" d="M 260.215674 87.531643 
L 260.215674 200.669869 
" style="fill:none;stroke:#ff0000;stroke-dasharray:7.4,3.2;stroke-dashoffset:0;stroke-opacity:0.5;stroke-width:2;"/>
   </g>
   <g id="line2d_16">
    <path clip-path="url(#p3db863af40)" d="M 274.209404 92.528853 
L 274.209404 211.476152 
" style="fill:none;stroke:#ff0000;stroke-dasharray:7.4,3.2;stroke-dashoffset:0;stroke-opacity:0.5;stroke-width:2;"/>
   </g>
   <g id="line2d_17">
    <path clip-path="url(#p3db863af40)" d="M 288.203135 98.830004 
L 288.203135 221.836402 
" style="fill:none;stroke:#ff0000;stroke-dasharray:7.4,3.2;stroke-dashoffset:0;stroke-opacity:0.5;stroke-width:2;"/>
   </g>
   <g id="line2d_18">
    <path clip-path="url(#p3db863af40)" d="M 302.196865 106.497597 
L 302.196865 231.407723 
" style="fill:none;stroke:#ff0000;stroke-dasharray:7.4,3.2;stroke-dashoffset:0;stroke-opacity:0.5;stroke-width:2;"/>
   </g>
   <g id="line2d_19">
    <path clip-path="url(#p3db863af40)" d="M 316.190596 115.536385 
L 316.190596 239.873328 
" style="fill:none;stroke:#ff0000;stroke-dasharray:7.4,3.2;stroke-dashoffset:0;stroke-opacity:0.5;stroke-width:2;"/>
   </g>
   <g id="line2d_20">
    <path clip-path="url(#p3db863af40)" d="M 330.184326 125.868128 
L 330.184326 246.953028 
" style="fill:none;stroke:#ff0000;stroke-dasharray:7.4,3.2;stroke-dashoffset:0;stroke-opacity:0.5;stroke-width:2;"/>
   </g>
   <g id="line2d_21">
    <path clip-path="url(#p3db863af40)" d="M 344.178056 137.302335 
L 344.178056 252.412503 
" style="fill:none;stroke:#ff0000;stroke-dasharray:7.4,3.2;stroke-dashoffset:0;stroke-opacity:0.5;stroke-width:2;"/>
   </g>
   <g id="line2d_22">
    <path clip-path="url(#p3db863af40)" d="M 358.171787 149.504756 
L 358.171787 256.071057 
" style="fill:none;stroke:#ff0000;stroke-dasharray:7.4,3.2;stroke-dashoffset:0;stroke-opacity:0.5;stroke-width:2;"/>
   </g>
   <g id="line2d_23">
    <path clip-path="url(#p3db863af40)" d="M 372.165517 161.967203 
L 372.165517 257.807603 
" style="fill:none;stroke:#ff0000;stroke-dasharray:7.4,3.2;stroke-dashoffset:0;stroke-opacity:0.5;stroke-width:2;"/>
   </g>
   <g id="line2d_24">
    <path clip-path="url(#p3db863af40)" d="M 386.159248 173.984695 
L 386.159248 257.564666 
" style="fill:none;stroke:#ff0000;stroke-dasharray:7.4,3.2;stroke-dashoffset:0;stroke-opacity:0.5;stroke-width:2;"/>
   </g>
   <g id="line2d_25">
    <path clip-path="url(#p3db863af40)" d="M 400.152978 184.64904 
L 400.152978 255.350285 
" style="fill:none;stroke:#ff0000;stroke-dasharray:7.4,3.2;stroke-dashoffset:0;stroke-opacity:0.5;stroke-width:2;"/>
   </g>
   <g id="line2d_26">
    <path clip-path="url(#p3db863af40)" d="M 414.146708 192.871427 
L 414.146708 251.237751 
" style="fill:none;stroke:#ff0000;stroke-dasharray:7.4,3.2;stroke-dashoffset:0;stroke-opacity:0.5;stroke-width:2;"/>
   </g>
   <g id="line2d_27">
    <path clip-path="url(#p3db863af40)" d="M 428.140439 197.449652 
L 428.140439 245.363179 
" style="fill:none;stroke:#ff0000;stroke-dasharray:7.4,3.2;stroke-dashoffset:0;stroke-opacity:0.5;stroke-width:2;"/>
   </g>
   <g id="line2d_28">
    <path clip-path="url(#p3db863af40)" d="M 442.134169 197.196763 
L 442.134169 237.921001 
" style="fill:none;stroke:#ff0000;stroke-dasharray:7.4,3.2;stroke-dashoffset:0;stroke-opacity:0.5;stroke-width:2;"/>
   </g>
   <g id="line2d_29">
    <path clip-path="url(#p3db863af40)" d="M 456.1279 191.144751 
L 456.1279 229.157535 
" style="fill:none;stroke:#ff0000;stroke-dasharray:7.4,3.2;stroke-dashoffset:0;stroke-opacity:0.5;stroke-width:2;"/>
   </g>
   <g id="line2d_30">
    <path clip-path="url(#p3db863af40)" d="M 470.12163 178.825897 
L 470.12163 219.362829 
" style="fill:none;stroke:#ff0000;stroke-dasharray:7.4,3.2;stroke-dashoffset:0;stroke-opacity:0.5;stroke-width:2;"/>
   </g>
   <g id="line2d_31">
    <path clip-path="url(#p3db863af40)" d="M 484.115361 160.611557 
L 484.115361 208.861062 
" style="fill:none;stroke:#ff0000;stroke-dasharray:7.4,3.2;stroke-dashoffset:0;stroke-opacity:0.5;stroke-width:2;"/>
   </g>
   <g id="line2d_32">
    <path clip-path="url(#p3db863af40)" d="M 498.109091 138.050147 
L 498.109091 197.999816 
" style="fill:none;stroke:#ff0000;stroke-dasharray:7.4,3.2;stroke-dashoffset:0;stroke-opacity:0.5;stroke-width:2;"/>
   </g>
   <g id="patch_3">
    <path d="M 72 266.792727 
L 72 69.12 
" style="fill:none;stroke:#000000;stroke-linecap:square;stroke-linejoin:miter;stroke-width:0.8;"/>
   </g>
   <g id="patch_4">
    <path d="M 518.4 266.792727 
L 518.4 69.12 
" style="fill:none;stroke:#000000;stroke-linecap:square;stroke-linejoin:miter;stroke-width:0.8;"/>
   </g>
   <g id="patch_5">
    <path d="M 72 266.792727 
L 518.4 266.792727 
" style="fill:none;stroke:#000000;stroke-linecap:square;stroke-linejoin:miter;stroke-width:0.8;"/>
   </g>
   <g id="patch_6">
    <path d="M 72 69.12 
L 518.4 69.12 
" style="fill:none;stroke:#000000;stroke-linecap:square;stroke-linejoin:miter;stroke-width:0.8;"/>
   </g>
   <g id="text_1">
    <!-- Euclidian distance -->
    <g transform="translate(227.058984 63.12)scale(0.15 -0.15)">
     <defs>
      <path d="M 628 4666 
L 3578 4666 
L 3578 4134 
L 1259 4134 
L 1259 2753 
L 3481 2753 
L 3481 2222 
L 1259 2222 
L 1259 531 
L 3634 531 
L 3634 0 
L 628 0 
L 628 4666 
z
" id="DejaVuSans-45" transform="scale(0.015625)"/>
      <path d="M 544 1381 
L 544 3500 
L 1119 3500 
L 1119 1403 
Q 1119 906 1312 657 
Q 1506 409 1894 409 
Q 2359 409 2629 706 
Q 2900 1003 2900 1516 
L 2900 3500 
L 3475 3500 
L 3475 0 
L 2900 0 
L 2900 538 
Q 2691 219 2414 64 
Q 2138 -91 1772 -91 
Q 1169 -91 856 284 
Q 544 659 544 1381 
z
M 1991 3584 
L 1991 3584 
z
" id="DejaVuSans-75" transform="scale(0.015625)"/>
      <path d="M 3122 3366 
L 3122 2828 
Q 2878 2963 2633 3030 
Q 2388 3097 2138 3097 
Q 1578 3097 1268 2742 
Q 959 2388 959 1747 
Q 959 1106 1268 751 
Q 1578 397 2138 397 
Q 2388 397 2633 464 
Q 2878 531 3122 666 
L 3122 134 
Q 2881 22 2623 -34 
Q 2366 -91 2075 -91 
Q 1284 -91 818 406 
Q 353 903 353 1747 
Q 353 2603 823 3093 
Q 1294 3584 2113 3584 
Q 2378 3584 2631 3529 
Q 2884 3475 3122 3366 
z
" id="DejaVuSans-63" transform="scale(0.015625)"/>
      <path d="M 603 4863 
L 1178 4863 
L 1178 0 
L 603 0 
L 603 4863 
z
" id="DejaVuSans-6c" transform="scale(0.015625)"/>
      <path d="M 603 3500 
L 1178 3500 
L 1178 0 
L 603 0 
L 603 3500 
z
M 603 4863 
L 1178 4863 
L 1178 4134 
L 603 4134 
L 603 4863 
z
" id="DejaVuSans-69" transform="scale(0.015625)"/>
      <path d="M 2906 2969 
L 2906 4863 
L 3481 4863 
L 3481 0 
L 2906 0 
L 2906 525 
Q 2725 213 2448 61 
Q 2172 -91 1784 -91 
Q 1150 -91 751 415 
Q 353 922 353 1747 
Q 353 2572 751 3078 
Q 1150 3584 1784 3584 
Q 2172 3584 2448 3432 
Q 2725 3281 2906 2969 
z
M 947 1747 
Q 947 1113 1208 752 
Q 1469 391 1925 391 
Q 2381 391 2643 752 
Q 2906 1113 2906 1747 
Q 2906 2381 2643 2742 
Q 2381 3103 1925 3103 
Q 1469 3103 1208 2742 
Q 947 2381 947 1747 
z
" id="DejaVuSans-64" transform="scale(0.015625)"/>
      <path d="M 2194 1759 
Q 1497 1759 1228 1600 
Q 959 1441 959 1056 
Q 959 750 1161 570 
Q 1363 391 1709 391 
Q 2188 391 2477 730 
Q 2766 1069 2766 1631 
L 2766 1759 
L 2194 1759 
z
M 3341 1997 
L 3341 0 
L 2766 0 
L 2766 531 
Q 2569 213 2275 61 
Q 1981 -91 1556 -91 
Q 1019 -91 701 211 
Q 384 513 384 1019 
Q 384 1609 779 1909 
Q 1175 2209 1959 2209 
L 2766 2209 
L 2766 2266 
Q 2766 2663 2505 2880 
Q 2244 3097 1772 3097 
Q 1472 3097 1187 3025 
Q 903 2953 641 2809 
L 641 3341 
Q 956 3463 1253 3523 
Q 1550 3584 1831 3584 
Q 2591 3584 2966 3190 
Q 3341 2797 3341 1997 
z
" id="DejaVuSans-61" transform="scale(0.015625)"/>
      <path d="M 3513 2113 
L 3513 0 
L 2938 0 
L 2938 2094 
Q 2938 2591 2744 2837 
Q 2550 3084 2163 3084 
Q 1697 3084 1428 2787 
Q 1159 2491 1159 1978 
L 1159 0 
L 581 0 
L 581 3500 
L 1159 3500 
L 1159 2956 
Q 1366 3272 1645 3428 
Q 1925 3584 2291 3584 
Q 2894 3584 3203 3211 
Q 3513 2838 3513 2113 
z
" id="DejaVuSans-6e" transform="scale(0.015625)"/>
      <path id="DejaVuSans-20" transform="scale(0.015625)"/>
      <path d="M 2834 3397 
L 2834 2853 
Q 2591 2978 2328 3040 
Q 2066 3103 1784 3103 
Q 1356 3103 1142 2972 
Q 928 2841 928 2578 
Q 928 2378 1081 2264 
Q 1234 2150 1697 2047 
L 1894 2003 
Q 2506 1872 2764 1633 
Q 3022 1394 3022 966 
Q 3022 478 2636 193 
Q 2250 -91 1575 -91 
Q 1294 -91 989 -36 
Q 684 19 347 128 
L 347 722 
Q 666 556 975 473 
Q 1284 391 1588 391 
Q 1994 391 2212 530 
Q 2431 669 2431 922 
Q 2431 1156 2273 1281 
Q 2116 1406 1581 1522 
L 1381 1569 
Q 847 1681 609 1914 
Q 372 2147 372 2553 
Q 372 3047 722 3315 
Q 1072 3584 1716 3584 
Q 2034 3584 2315 3537 
Q 2597 3491 2834 3397 
z
" id="DejaVuSans-73" transform="scale(0.015625)"/>
      <path d="M 1172 4494 
L 1172 3500 
L 2356 3500 
L 2356 3053 
L 1172 3053 
L 1172 1153 
Q 1172 725 1289 603 
Q 1406 481 1766 481 
L 2356 481 
L 2356 0 
L 1766 0 
Q 1100 0 847 248 
Q 594 497 594 1153 
L 594 3053 
L 172 3053 
L 172 3500 
L 594 3500 
L 594 4494 
L 1172 4494 
z
" id="DejaVuSans-74" transform="scale(0.015625)"/>
      <path d="M 3597 1894 
L 3597 1613 
L 953 1613 
Q 991 1019 1311 708 
Q 1631 397 2203 397 
Q 2534 397 2845 478 
Q 3156 559 3463 722 
L 3463 178 
Q 3153 47 2828 -22 
Q 2503 -91 2169 -91 
Q 1331 -91 842 396 
Q 353 884 353 1716 
Q 353 2575 817 3079 
Q 1281 3584 2069 3584 
Q 2775 3584 3186 3129 
Q 3597 2675 3597 1894 
z
M 3022 2063 
Q 3016 2534 2758 2815 
Q 2500 3097 2075 3097 
Q 1594 3097 1305 2825 
Q 1016 2553 972 2059 
L 3022 2063 
z
" id="DejaVuSans-65" transform="scale(0.015625)"/>
     </defs>
     <use xlink:href="#DejaVuSans-45"/>
     <use x="63.183594" xlink:href="#DejaVuSans-75"/>
     <use x="126.5625" xlink:href="#DejaVuSans-63"/>
     <use x="181.542969" xlink:href="#DejaVuSans-6c"/>
     <use x="209.326172" xlink:href="#DejaVuSans-69"/>
     <use x="237.109375" xlink:href="#DejaVuSans-64"/>
     <use x="300.585938" xlink:href="#DejaVuSans-69"/>
     <use x="328.369141" xlink:href="#DejaVuSans-61"/>
     <use x="389.648438" xlink:href="#DejaVuSans-6e"/>
     <use x="453.027344" xlink:href="#DejaVuSans-20"/>
     <use x="484.814453" xlink:href="#DejaVuSans-64"/>
     <use x="548.291016" xlink:href="#DejaVuSans-69"/>
     <use x="576.074219" xlink:href="#DejaVuSans-73"/>
     <use x="628.173828" xlink:href="#DejaVuSans-74"/>
     <use x="667.382812" xlink:href="#DejaVuSans-61"/>
     <use x="728.662109" xlink:href="#DejaVuSans-6e"/>
     <use x="792.041016" xlink:href="#DejaVuSans-63"/>
     <use x="847.021484" xlink:href="#DejaVuSans-65"/>
    </g>
   </g>
  </g>
  <g id="axes_2">
   <g id="patch_7">
    <path d="M 72 504 
L 518.4 504 
L 518.4 306.327273 
L 72 306.327273 
z
" style="fill:#ffffff;"/>
   </g>
   <g id="matplotlib.axis_3"/>
   <g id="matplotlib.axis_4"/>
   <g id="line2d_33">
    <path clip-path="url(#p1a97654f70)" d="M 92.290909 324.811513 
L 106.284639 322.801734 
L 120.27837 320.907622 
L 134.2721 319.180237 
L 148.265831 317.680197 
L 162.259561 316.478636 
L 176.253292 315.657978 
L 190.247022 315.312397 
L 204.240752 315.547736 
L 218.234483 316.480644 
L 232.228213 318.236537 
L 246.221944 320.945981 
L 260.215674 324.738916 
L 274.209404 329.736126 
L 288.203135 336.037276 
L 302.196865 343.70487 
L 316.190596 352.743657 
L 330.184326 363.075401 
L 344.178056 374.509608 
L 358.171787 386.712029 
L 372.165517 399.174476 
L 386.159248 411.191968 
L 400.152978 421.856313 
L 414.146708 430.0787 
L 428.140439 434.656925 
L 442.134169 434.404036 
L 456.1279 428.352023 
L 470.12163 416.03317 
L 484.115361 397.81883 
L 498.109091 375.25742 
" style="fill:none;stroke:#1f77b4;stroke-linecap:square;stroke-width:3;"/>
    <g clip-path="url(#p1a97654f70)">
     <use style="fill:#1f77b4;stroke:#1f77b4;" x="92.290909" xlink:href="#m844c352c39" y="324.811513"/>
     <use style="fill:#1f77b4;stroke:#1f77b4;" x="106.284639" xlink:href="#m844c352c39" y="322.801734"/>
     <use style="fill:#1f77b4;stroke:#1f77b4;" x="120.27837" xlink:href="#m844c352c39" y="320.907622"/>
     <use style="fill:#1f77b4;stroke:#1f77b4;" x="134.2721" xlink:href="#m844c352c39" y="319.180237"/>
     <use style="fill:#1f77b4;stroke:#1f77b4;" x="148.265831" xlink:href="#m844c352c39" y="317.680197"/>
     <use style="fill:#1f77b4;stroke:#1f77b4;" x="162.259561" xlink:href="#m844c352c39" y="316.478636"/>
     <use style="fill:#1f77b4;stroke:#1f77b4;" x="176.253292" xlink:href="#m844c352c39" y="315.657978"/>
     <use style="fill:#1f77b4;stroke:#1f77b4;" x="190.247022" xlink:href="#m844c352c39" y="315.312397"/>
     <use style="fill:#1f77b4;stroke:#1f77b4;" x="204.240752" xlink:href="#m844c352c39" y="315.547736"/>
     <use style="fill:#1f77b4;stroke:#1f77b4;" x="218.234483" xlink:href="#m844c352c39" y="316.480644"/>
     <use style="fill:#1f77b4;stroke:#1f77b4;" x="232.228213" xlink:href="#m844c352c39" y="318.236537"/>
     <use style="fill:#1f77b4;stroke:#1f77b4;" x="246.221944" xlink:href="#m844c352c39" y="320.945981"/>
     <use style="fill:#1f77b4;stroke:#1f77b4;" x="260.215674" xlink:href="#m844c352c39" y="324.738916"/>
     <use style="fill:#1f77b4;stroke:#1f77b4;" x="274.209404" xlink:href="#m844c352c39" y="329.736126"/>
     <use style="fill:#1f77b4;stroke:#1f77b4;" x="288.203135" xlink:href="#m844c352c39" y="336.037276"/>
     <use style="fill:#1f77b4;stroke:#1f77b4;" x="302.196865" xlink:href="#m844c352c39" y="343.70487"/>
     <use style="fill:#1f77b4;stroke:#1f77b4;" x="316.190596" xlink:href="#m844c352c39" y="352.743657"/>
     <use style="fill:#1f77b4;stroke:#1f77b4;" x="330.184326" xlink:href="#m844c352c39" y="363.075401"/>
     <use style="fill:#1f77b4;stroke:#1f77b4;" x="344.178056" xlink:href="#m844c352c39" y="374.509608"/>
     <use style="fill:#1f77b4;stroke:#1f77b4;" x="358.171787" xlink:href="#m844c352c39" y="386.712029"/>
     <use style="fill:#1f77b4;stroke:#1f77b4;" x="372.165517" xlink:href="#m844c352c39" y="399.174476"/>
     <use style="fill:#1f77b4;stroke:#1f77b4;" x="386.159248" xlink:href="#m844c352c39" y="411.191968"/>
     <use style="fill:#1f77b4;stroke:#1f77b4;" x="400.152978" xlink:href="#m844c352c39" y="421.856313"/>
     <use style="fill:#1f77b4;stroke:#1f77b4;" x="414.146708" xlink:href="#m844c352c39" y="430.0787"/>
     <use style="fill:#1f77b4;stroke:#1f77b4;" x="428.140439" xlink:href="#m844c352c39" y="434.656925"/>
     <use style="fill:#1f77b4;stroke:#1f77b4;" x="442.134169" xlink:href="#m844c352c39" y="434.404036"/>
     <use style="fill:#1f77b4;stroke:#1f77b4;" x="456.1279" xlink:href="#m844c352c39" y="428.352023"/>
     <use style="fill:#1f77b4;stroke:#1f77b4;" x="470.12163" xlink:href="#m844c352c39" y="416.03317"/>
     <use style="fill:#1f77b4;stroke:#1f77b4;" x="484.115361" xlink:href="#m844c352c39" y="397.81883"/>
     <use style="fill:#1f77b4;stroke:#1f77b4;" x="498.109091" xlink:href="#m844c352c39" y="375.25742"/>
    </g>
   </g>
   <g id="line2d_34">
    <path clip-path="url(#p1a97654f70)" d="M 92.290909 384.761182 
L 106.284639 379.72764 
L 120.27837 376.530325 
L 134.2721 375.27506 
L 148.265831 376.003391 
L 162.259561 378.691212 
L 176.253292 383.249563 
L 190.247022 389.527574 
L 204.240752 397.317459 
L 218.234483 406.361394 
L 232.228213 416.360046 
L 246.221944 426.982488 
L 260.215674 437.877142 
L 274.209404 448.683425 
L 288.203135 459.043675 
L 302.196865 468.614996 
L 316.190596 477.080601 
L 330.184326 484.160301 
L 344.178056 489.619775 
L 358.171787 493.27833 
L 372.165517 495.014876 
L 386.159248 494.771938 
L 400.152978 492.557558 
L 414.146708 488.445024 
L 428.140439 482.570452 
L 442.134169 475.128274 
L 456.1279 466.364808 
L 470.12163 456.570102 
L 484.115361 446.068335 
L 498.109091 435.207089 
" style="fill:none;stroke:#ff7f0e;stroke-linecap:square;stroke-width:3;"/>
    <g clip-path="url(#p1a97654f70)">
     <use style="fill:#ff7f0e;stroke:#ff7f0e;" x="92.290909" xlink:href="#mb0dc731aa7" y="384.761182"/>
     <use style="fill:#ff7f0e;stroke:#ff7f0e;" x="106.284639" xlink:href="#mb0dc731aa7" y="379.72764"/>
     <use style="fill:#ff7f0e;stroke:#ff7f0e;" x="120.27837" xlink:href="#mb0dc731aa7" y="376.530325"/>
     <use style="fill:#ff7f0e;stroke:#ff7f0e;" x="134.2721" xlink:href="#mb0dc731aa7" y="375.27506"/>
     <use style="fill:#ff7f0e;stroke:#ff7f0e;" x="148.265831" xlink:href="#mb0dc731aa7" y="376.003391"/>
     <use style="fill:#ff7f0e;stroke:#ff7f0e;" x="162.259561" xlink:href="#mb0dc731aa7" y="378.691212"/>
     <use style="fill:#ff7f0e;stroke:#ff7f0e;" x="176.253292" xlink:href="#mb0dc731aa7" y="383.249563"/>
     <use style="fill:#ff7f0e;stroke:#ff7f0e;" x="190.247022" xlink:href="#mb0dc731aa7" y="389.527574"/>
     <use style="fill:#ff7f0e;stroke:#ff7f0e;" x="204.240752" xlink:href="#mb0dc731aa7" y="397.317459"/>
     <use style="fill:#ff7f0e;stroke:#ff7f0e;" x="218.234483" xlink:href="#mb0dc731aa7" y="406.361394"/>
     <use style="fill:#ff7f0e;stroke:#ff7f0e;" x="232.228213" xlink:href="#mb0dc731aa7" y="416.360046"/>
     <use style="fill:#ff7f0e;stroke:#ff7f0e;" x="246.221944" xlink:href="#mb0dc731aa7" y="426.982488"/>
     <use style="fill:#ff7f0e;stroke:#ff7f0e;" x="260.215674" xlink:href="#mb0dc731aa7" y="437.877142"/>
     <use style="fill:#ff7f0e;stroke:#ff7f0e;" x="274.209404" xlink:href="#mb0dc731aa7" y="448.683425"/>
     <use style="fill:#ff7f0e;stroke:#ff7f0e;" x="288.203135" xlink:href="#mb0dc731aa7" y="459.043675"/>
     <use style="fill:#ff7f0e;stroke:#ff7f0e;" x="302.196865" xlink:href="#mb0dc731aa7" y="468.614996"/>
     <use style="fill:#ff7f0e;stroke:#ff7f0e;" x="316.190596" xlink:href="#mb0dc731aa7" y="477.080601"/>
     <use style="fill:#ff7f0e;stroke:#ff7f0e;" x="330.184326" xlink:href="#mb0dc731aa7" y="484.160301"/>
     <use style="fill:#ff7f0e;stroke:#ff7f0e;" x="344.178056" xlink:href="#mb0dc731aa7" y="489.619775"/>
     <use style="fill:#ff7f0e;stroke:#ff7f0e;" x="358.171787" xlink:href="#mb0dc731aa7" y="493.27833"/>
     <use style="fill:#ff7f0e;stroke:#ff7f0e;" x="372.165517" xlink:href="#mb0dc731aa7" y="495.014876"/>
     <use style="fill:#ff7f0e;stroke:#ff7f0e;" x="386.159248" xlink:href="#mb0dc731aa7" y="494.771938"/>
     <use style="fill:#ff7f0e;stroke:#ff7f0e;" x="400.152978" xlink:href="#mb0dc731aa7" y="492.557558"/>
     <use style="fill:#ff7f0e;stroke:#ff7f0e;" x="414.146708" xlink:href="#mb0dc731aa7" y="488.445024"/>
     <use style="fill:#ff7f0e;stroke:#ff7f0e;" x="428.140439" xlink:href="#mb0dc731aa7" y="482.570452"/>
     <use style="fill:#ff7f0e;stroke:#ff7f0e;" x="442.134169" xlink:href="#mb0dc731aa7" y="475.128274"/>
     <use style="fill:#ff7f0e;stroke:#ff7f0e;" x="456.1279" xlink:href="#mb0dc731aa7" y="466.364808"/>
     <use style="fill:#ff7f0e;stroke:#ff7f0e;" x="470.12163" xlink:href="#mb0dc731aa7" y="456.570102"/>
     <use style="fill:#ff7f0e;stroke:#ff7f0e;" x="484.115361" xlink:href="#mb0dc731aa7" y="446.068335"/>
     <use style="fill:#ff7f0e;stroke:#ff7f0e;" x="498.109091" xlink:href="#mb0dc731aa7" y="435.207089"/>
    </g>
   </g>
   <g id="line2d_35">
    <path clip-path="url(#p1a97654f70)" d="M 92.290909 324.811513 
L 92.290909 384.761182 
" style="fill:none;stroke:#ff0000;stroke-dasharray:7.4,3.2;stroke-dashoffset:0;stroke-opacity:0.5;stroke-width:2;"/>
   </g>
   <g id="line2d_36">
    <path clip-path="url(#p1a97654f70)" d="M 106.284639 322.801734 
L 92.290909 384.761182 
" style="fill:none;stroke:#ff0000;stroke-dasharray:7.4,3.2;stroke-dashoffset:0;stroke-opacity:0.5;stroke-width:2;"/>
   </g>
   <g id="line2d_37">
    <path clip-path="url(#p1a97654f70)" d="M 120.27837 320.907622 
L 106.284639 379.72764 
" style="fill:none;stroke:#ff0000;stroke-dasharray:7.4,3.2;stroke-dashoffset:0;stroke-opacity:0.5;stroke-width:2;"/>
   </g>
   <g id="line2d_38">
    <path clip-path="url(#p1a97654f70)" d="M 134.2721 319.180237 
L 106.284639 379.72764 
" style="fill:none;stroke:#ff0000;stroke-dasharray:7.4,3.2;stroke-dashoffset:0;stroke-opacity:0.5;stroke-width:2;"/>
   </g>
   <g id="line2d_39">
    <path clip-path="url(#p1a97654f70)" d="M 148.265831 317.680197 
L 120.27837 376.530325 
" style="fill:none;stroke:#ff0000;stroke-dasharray:7.4,3.2;stroke-dashoffset:0;stroke-opacity:0.5;stroke-width:2;"/>
   </g>
   <g id="line2d_40">
    <path clip-path="url(#p1a97654f70)" d="M 162.259561 316.478636 
L 120.27837 376.530325 
" style="fill:none;stroke:#ff0000;stroke-dasharray:7.4,3.2;stroke-dashoffset:0;stroke-opacity:0.5;stroke-width:2;"/>
   </g>
   <g id="line2d_41">
    <path clip-path="url(#p1a97654f70)" d="M 176.253292 315.657978 
L 134.2721 375.27506 
" style="fill:none;stroke:#ff0000;stroke-dasharray:7.4,3.2;stroke-dashoffset:0;stroke-opacity:0.5;stroke-width:2;"/>
   </g>
   <g id="line2d_42">
    <path clip-path="url(#p1a97654f70)" d="M 190.247022 315.312397 
L 134.2721 375.27506 
" style="fill:none;stroke:#ff0000;stroke-dasharray:7.4,3.2;stroke-dashoffset:0;stroke-opacity:0.5;stroke-width:2;"/>
   </g>
   <g id="line2d_43">
    <path clip-path="url(#p1a97654f70)" d="M 204.240752 315.547736 
L 134.2721 375.27506 
" style="fill:none;stroke:#ff0000;stroke-dasharray:7.4,3.2;stroke-dashoffset:0;stroke-opacity:0.5;stroke-width:2;"/>
   </g>
   <g id="line2d_44">
    <path clip-path="url(#p1a97654f70)" d="M 218.234483 316.480644 
L 148.265831 376.003391 
" style="fill:none;stroke:#ff0000;stroke-dasharray:7.4,3.2;stroke-dashoffset:0;stroke-opacity:0.5;stroke-width:2;"/>
   </g>
   <g id="line2d_45">
    <path clip-path="url(#p1a97654f70)" d="M 232.228213 318.236537 
L 162.259561 378.691212 
" style="fill:none;stroke:#ff0000;stroke-dasharray:7.4,3.2;stroke-dashoffset:0;stroke-opacity:0.5;stroke-width:2;"/>
   </g>
   <g id="line2d_46">
    <path clip-path="url(#p1a97654f70)" d="M 246.221944 320.945981 
L 162.259561 378.691212 
" style="fill:none;stroke:#ff0000;stroke-dasharray:7.4,3.2;stroke-dashoffset:0;stroke-opacity:0.5;stroke-width:2;"/>
   </g>
   <g id="line2d_47">
    <path clip-path="url(#p1a97654f70)" d="M 260.215674 324.738916 
L 176.253292 383.249563 
" style="fill:none;stroke:#ff0000;stroke-dasharray:7.4,3.2;stroke-dashoffset:0;stroke-opacity:0.5;stroke-width:2;"/>
   </g>
   <g id="line2d_48">
    <path clip-path="url(#p1a97654f70)" d="M 274.209404 329.736126 
L 190.247022 389.527574 
" style="fill:none;stroke:#ff0000;stroke-dasharray:7.4,3.2;stroke-dashoffset:0;stroke-opacity:0.5;stroke-width:2;"/>
   </g>
   <g id="line2d_49">
    <path clip-path="url(#p1a97654f70)" d="M 288.203135 336.037276 
L 204.240752 397.317459 
" style="fill:none;stroke:#ff0000;stroke-dasharray:7.4,3.2;stroke-dashoffset:0;stroke-opacity:0.5;stroke-width:2;"/>
   </g>
   <g id="line2d_50">
    <path clip-path="url(#p1a97654f70)" d="M 302.196865 343.70487 
L 218.234483 406.361394 
" style="fill:none;stroke:#ff0000;stroke-dasharray:7.4,3.2;stroke-dashoffset:0;stroke-opacity:0.5;stroke-width:2;"/>
   </g>
   <g id="line2d_51">
    <path clip-path="url(#p1a97654f70)" d="M 316.190596 352.743657 
L 232.228213 416.360046 
" style="fill:none;stroke:#ff0000;stroke-dasharray:7.4,3.2;stroke-dashoffset:0;stroke-opacity:0.5;stroke-width:2;"/>
   </g>
   <g id="line2d_52">
    <path clip-path="url(#p1a97654f70)" d="M 330.184326 363.075401 
L 246.221944 426.982488 
" style="fill:none;stroke:#ff0000;stroke-dasharray:7.4,3.2;stroke-dashoffset:0;stroke-opacity:0.5;stroke-width:2;"/>
   </g>
   <g id="line2d_53">
    <path clip-path="url(#p1a97654f70)" d="M 344.178056 374.509608 
L 260.215674 437.877142 
" style="fill:none;stroke:#ff0000;stroke-dasharray:7.4,3.2;stroke-dashoffset:0;stroke-opacity:0.5;stroke-width:2;"/>
   </g>
   <g id="line2d_54">
    <path clip-path="url(#p1a97654f70)" d="M 358.171787 386.712029 
L 274.209404 448.683425 
" style="fill:none;stroke:#ff0000;stroke-dasharray:7.4,3.2;stroke-dashoffset:0;stroke-opacity:0.5;stroke-width:2;"/>
   </g>
   <g id="line2d_55">
    <path clip-path="url(#p1a97654f70)" d="M 372.165517 399.174476 
L 288.203135 459.043675 
" style="fill:none;stroke:#ff0000;stroke-dasharray:7.4,3.2;stroke-dashoffset:0;stroke-opacity:0.5;stroke-width:2;"/>
   </g>
   <g id="line2d_56">
    <path clip-path="url(#p1a97654f70)" d="M 386.159248 411.191968 
L 302.196865 468.614996 
" style="fill:none;stroke:#ff0000;stroke-dasharray:7.4,3.2;stroke-dashoffset:0;stroke-opacity:0.5;stroke-width:2;"/>
   </g>
   <g id="line2d_57">
    <path clip-path="url(#p1a97654f70)" d="M 400.152978 421.856313 
L 316.190596 477.080601 
" style="fill:none;stroke:#ff0000;stroke-dasharray:7.4,3.2;stroke-dashoffset:0;stroke-opacity:0.5;stroke-width:2;"/>
   </g>
   <g id="line2d_58">
    <path clip-path="url(#p1a97654f70)" d="M 400.152978 421.856313 
L 330.184326 484.160301 
" style="fill:none;stroke:#ff0000;stroke-dasharray:7.4,3.2;stroke-dashoffset:0;stroke-opacity:0.5;stroke-width:2;"/>
   </g>
   <g id="line2d_59">
    <path clip-path="url(#p1a97654f70)" d="M 414.146708 430.0787 
L 344.178056 489.619775 
" style="fill:none;stroke:#ff0000;stroke-dasharray:7.4,3.2;stroke-dashoffset:0;stroke-opacity:0.5;stroke-width:2;"/>
   </g>
   <g id="line2d_60">
    <path clip-path="url(#p1a97654f70)" d="M 428.140439 434.656925 
L 358.171787 493.27833 
" style="fill:none;stroke:#ff0000;stroke-dasharray:7.4,3.2;stroke-dashoffset:0;stroke-opacity:0.5;stroke-width:2;"/>
   </g>
   <g id="line2d_61">
    <path clip-path="url(#p1a97654f70)" d="M 428.140439 434.656925 
L 372.165517 495.014876 
" style="fill:none;stroke:#ff0000;stroke-dasharray:7.4,3.2;stroke-dashoffset:0;stroke-opacity:0.5;stroke-width:2;"/>
   </g>
   <g id="line2d_62">
    <path clip-path="url(#p1a97654f70)" d="M 428.140439 434.656925 
L 386.159248 494.771938 
" style="fill:none;stroke:#ff0000;stroke-dasharray:7.4,3.2;stroke-dashoffset:0;stroke-opacity:0.5;stroke-width:2;"/>
   </g>
   <g id="line2d_63">
    <path clip-path="url(#p1a97654f70)" d="M 442.134169 434.404036 
L 400.152978 492.557558 
" style="fill:none;stroke:#ff0000;stroke-dasharray:7.4,3.2;stroke-dashoffset:0;stroke-opacity:0.5;stroke-width:2;"/>
   </g>
   <g id="line2d_64">
    <path clip-path="url(#p1a97654f70)" d="M 456.1279 428.352023 
L 414.146708 488.445024 
" style="fill:none;stroke:#ff0000;stroke-dasharray:7.4,3.2;stroke-dashoffset:0;stroke-opacity:0.5;stroke-width:2;"/>
   </g>
   <g id="line2d_65">
    <path clip-path="url(#p1a97654f70)" d="M 456.1279 428.352023 
L 428.140439 482.570452 
" style="fill:none;stroke:#ff0000;stroke-dasharray:7.4,3.2;stroke-dashoffset:0;stroke-opacity:0.5;stroke-width:2;"/>
   </g>
   <g id="line2d_66">
    <path clip-path="url(#p1a97654f70)" d="M 470.12163 416.03317 
L 442.134169 475.128274 
" style="fill:none;stroke:#ff0000;stroke-dasharray:7.4,3.2;stroke-dashoffset:0;stroke-opacity:0.5;stroke-width:2;"/>
   </g>
   <g id="line2d_67">
    <path clip-path="url(#p1a97654f70)" d="M 484.115361 397.81883 
L 456.1279 466.364808 
" style="fill:none;stroke:#ff0000;stroke-dasharray:7.4,3.2;stroke-dashoffset:0;stroke-opacity:0.5;stroke-width:2;"/>
   </g>
   <g id="line2d_68">
    <path clip-path="url(#p1a97654f70)" d="M 484.115361 397.81883 
L 470.12163 456.570102 
" style="fill:none;stroke:#ff0000;stroke-dasharray:7.4,3.2;stroke-dashoffset:0;stroke-opacity:0.5;stroke-width:2;"/>
   </g>
   <g id="line2d_69">
    <path clip-path="url(#p1a97654f70)" d="M 498.109091 375.25742 
L 484.115361 446.068335 
" style="fill:none;stroke:#ff0000;stroke-dasharray:7.4,3.2;stroke-dashoffset:0;stroke-opacity:0.5;stroke-width:2;"/>
   </g>
   <g id="line2d_70">
    <path clip-path="url(#p1a97654f70)" d="M 498.109091 375.25742 
L 498.109091 435.207089 
" style="fill:none;stroke:#ff0000;stroke-dasharray:7.4,3.2;stroke-dashoffset:0;stroke-opacity:0.5;stroke-width:2;"/>
   </g>
   <g id="patch_8">
    <path d="M 72 504 
L 72 306.327273 
" style="fill:none;stroke:#000000;stroke-linecap:square;stroke-linejoin:miter;stroke-width:0.8;"/>
   </g>
   <g id="patch_9">
    <path d="M 518.4 504 
L 518.4 306.327273 
" style="fill:none;stroke:#000000;stroke-linecap:square;stroke-linejoin:miter;stroke-width:0.8;"/>
   </g>
   <g id="patch_10">
    <path d="M 72 504 
L 518.4 504 
" style="fill:none;stroke:#000000;stroke-linecap:square;stroke-linejoin:miter;stroke-width:0.8;"/>
   </g>
   <g id="patch_11">
    <path d="M 72 306.327273 
L 518.4 306.327273 
" style="fill:none;stroke:#000000;stroke-linecap:square;stroke-linejoin:miter;stroke-width:0.8;"/>
   </g>
   <g id="text_2">
    <!-- Dynamic Time Warping -->
    <g transform="translate(208.030078 300.327273)scale(0.15 -0.15)">
     <defs>
      <path d="M 1259 4147 
L 1259 519 
L 2022 519 
Q 2988 519 3436 956 
Q 3884 1394 3884 2338 
Q 3884 3275 3436 3711 
Q 2988 4147 2022 4147 
L 1259 4147 
z
M 628 4666 
L 1925 4666 
Q 3281 4666 3915 4102 
Q 4550 3538 4550 2338 
Q 4550 1131 3912 565 
Q 3275 0 1925 0 
L 628 0 
L 628 4666 
z
" id="DejaVuSans-44" transform="scale(0.015625)"/>
      <path d="M 2059 -325 
Q 1816 -950 1584 -1140 
Q 1353 -1331 966 -1331 
L 506 -1331 
L 506 -850 
L 844 -850 
Q 1081 -850 1212 -737 
Q 1344 -625 1503 -206 
L 1606 56 
L 191 3500 
L 800 3500 
L 1894 763 
L 2988 3500 
L 3597 3500 
L 2059 -325 
z
" id="DejaVuSans-79" transform="scale(0.015625)"/>
      <path d="M 3328 2828 
Q 3544 3216 3844 3400 
Q 4144 3584 4550 3584 
Q 5097 3584 5394 3201 
Q 5691 2819 5691 2113 
L 5691 0 
L 5113 0 
L 5113 2094 
Q 5113 2597 4934 2840 
Q 4756 3084 4391 3084 
Q 3944 3084 3684 2787 
Q 3425 2491 3425 1978 
L 3425 0 
L 2847 0 
L 2847 2094 
Q 2847 2600 2669 2842 
Q 2491 3084 2119 3084 
Q 1678 3084 1418 2786 
Q 1159 2488 1159 1978 
L 1159 0 
L 581 0 
L 581 3500 
L 1159 3500 
L 1159 2956 
Q 1356 3278 1631 3431 
Q 1906 3584 2284 3584 
Q 2666 3584 2933 3390 
Q 3200 3197 3328 2828 
z
" id="DejaVuSans-6d" transform="scale(0.015625)"/>
      <path d="M -19 4666 
L 3928 4666 
L 3928 4134 
L 2272 4134 
L 2272 0 
L 1638 0 
L 1638 4134 
L -19 4134 
L -19 4666 
z
" id="DejaVuSans-54" transform="scale(0.015625)"/>
      <path d="M 213 4666 
L 850 4666 
L 1831 722 
L 2809 4666 
L 3519 4666 
L 4500 722 
L 5478 4666 
L 6119 4666 
L 4947 0 
L 4153 0 
L 3169 4050 
L 2175 0 
L 1381 0 
L 213 4666 
z
" id="DejaVuSans-57" transform="scale(0.015625)"/>
      <path d="M 2631 2963 
Q 2534 3019 2420 3045 
Q 2306 3072 2169 3072 
Q 1681 3072 1420 2755 
Q 1159 2438 1159 1844 
L 1159 0 
L 581 0 
L 581 3500 
L 1159 3500 
L 1159 2956 
Q 1341 3275 1631 3429 
Q 1922 3584 2338 3584 
Q 2397 3584 2469 3576 
Q 2541 3569 2628 3553 
L 2631 2963 
z
" id="DejaVuSans-72" transform="scale(0.015625)"/>
      <path d="M 1159 525 
L 1159 -1331 
L 581 -1331 
L 581 3500 
L 1159 3500 
L 1159 2969 
Q 1341 3281 1617 3432 
Q 1894 3584 2278 3584 
Q 2916 3584 3314 3078 
Q 3713 2572 3713 1747 
Q 3713 922 3314 415 
Q 2916 -91 2278 -91 
Q 1894 -91 1617 61 
Q 1341 213 1159 525 
z
M 3116 1747 
Q 3116 2381 2855 2742 
Q 2594 3103 2138 3103 
Q 1681 3103 1420 2742 
Q 1159 2381 1159 1747 
Q 1159 1113 1420 752 
Q 1681 391 2138 391 
Q 2594 391 2855 752 
Q 3116 1113 3116 1747 
z
" id="DejaVuSans-70" transform="scale(0.015625)"/>
      <path d="M 2906 1791 
Q 2906 2416 2648 2759 
Q 2391 3103 1925 3103 
Q 1463 3103 1205 2759 
Q 947 2416 947 1791 
Q 947 1169 1205 825 
Q 1463 481 1925 481 
Q 2391 481 2648 825 
Q 2906 1169 2906 1791 
z
M 3481 434 
Q 3481 -459 3084 -895 
Q 2688 -1331 1869 -1331 
Q 1566 -1331 1297 -1286 
Q 1028 -1241 775 -1147 
L 775 -588 
Q 1028 -725 1275 -790 
Q 1522 -856 1778 -856 
Q 2344 -856 2625 -561 
Q 2906 -266 2906 331 
L 2906 616 
Q 2728 306 2450 153 
Q 2172 0 1784 0 
Q 1141 0 747 490 
Q 353 981 353 1791 
Q 353 2603 747 3093 
Q 1141 3584 1784 3584 
Q 2172 3584 2450 3431 
Q 2728 3278 2906 2969 
L 2906 3500 
L 3481 3500 
L 3481 434 
z
" id="DejaVuSans-67" transform="scale(0.015625)"/>
     </defs>
     <use xlink:href="#DejaVuSans-44"/>
     <use x="77.001953" xlink:href="#DejaVuSans-79"/>
     <use x="136.181641" xlink:href="#DejaVuSans-6e"/>
     <use x="199.560547" xlink:href="#DejaVuSans-61"/>
     <use x="260.839844" xlink:href="#DejaVuSans-6d"/>
     <use x="358.251953" xlink:href="#DejaVuSans-69"/>
     <use x="386.035156" xlink:href="#DejaVuSans-63"/>
     <use x="441.015625" xlink:href="#DejaVuSans-20"/>
     <use x="472.802734" xlink:href="#DejaVuSans-54"/>
     <use x="530.761719" xlink:href="#DejaVuSans-69"/>
     <use x="558.544922" xlink:href="#DejaVuSans-6d"/>
     <use x="655.957031" xlink:href="#DejaVuSans-65"/>
     <use x="717.480469" xlink:href="#DejaVuSans-20"/>
     <use x="749.267578" xlink:href="#DejaVuSans-57"/>
     <use x="841.769531" xlink:href="#DejaVuSans-61"/>
     <use x="903.048828" xlink:href="#DejaVuSans-72"/>
     <use x="944.162109" xlink:href="#DejaVuSans-70"/>
     <use x="1007.638672" xlink:href="#DejaVuSans-69"/>
     <use x="1035.421875" xlink:href="#DejaVuSans-6e"/>
     <use x="1098.800781" xlink:href="#DejaVuSans-67"/>
    </g>
   </g>
  </g>
 </g>
 <defs>
  <clipPath id="p3db863af40">
   <rect height="197.672727" width="446.4" x="72" y="69.12"/>
  </clipPath>
  <clipPath id="p1a97654f70">
   <rect height="197.672727" width="446.4" x="72" y="306.327273"/>
  </clipPath>
 </defs>
</svg>
