<?xml version="1.0" encoding="utf-8" standalone="no"?>
<!DOCTYPE svg PUBLIC "-//W3C//DTD SVG 1.1//EN"
  "http://www.w3.org/Graphics/SVG/1.1/DTD/svg11.dtd">
<!-- Created with matplotlib (https://matplotlib.org/) -->
<svg height="576pt" version="1.1" viewBox="0 0 576 576" width="576pt" xmlns="http://www.w3.org/2000/svg" xmlns:xlink="http://www.w3.org/1999/xlink">
 <metadata>
  <rdf:RDF xmlns:cc="http://creativecommons.org/ns#" xmlns:dc="http://purl.org/dc/elements/1.1/" xmlns:rdf="http://www.w3.org/1999/02/22-rdf-syntax-ns#">
   <cc:Work>
    <dc:type rdf:resource="http://purl.org/dc/dcmitype/StillImage"/>
    <dc:date>1980-01-01T00:00:00+00:00</dc:date>
    <dc:format>image/svg+xml</dc:format>
    <dc:creator>
     <cc:Agent>
      <dc:title>Matplotlib v3.3.3, https://matplotlib.org/</dc:title>
     </cc:Agent>
    </dc:creator>
   </cc:Work>
  </rdf:RDF>
 </metadata>
 <defs>
  <style type="text/css">*{stroke-linecap:butt;stroke-linejoin:round;}</style>
 </defs>
 <g id="figure_1">
  <g id="patch_1">
   <path d="M 0 576 
L 576 576 
L 576 0 
L 0 0 
z
" style="fill:none;"/>
  </g>
  <g id="axes_1">
   <g id="patch_2">
    <path d="M 72 266.792727 
L 518.4 266.792727 
L 518.4 69.12 
L 72 69.12 
z
" style="fill:#ffffff;"/>
   </g>
   <g id="matplotlib.axis_1"/>
   <g id="matplotlib.axis_2"/>
   <g id="line2d_1">
    <path clip-path="url(#p85557acb89)" d="M 92.290909 87.60424 
L 106.284639 85.594461 
L 120.27837 83.700349 
L 134.2721 81.972964 
L 148.265831 80.472925 
L 162.259561 79.271363 
L 176.253292 78.450706 
L 190.247022 78.105124 
L 204.240752 78.340464 
L 218.234483 79.273371 
L 232.228213 81.029265 
L 246.221944 83.738709 
L 260.215674 87.531643 
L 274.209404 92.528853 
L 288.203135 98.830004 
L 302.196865 106.497597 
L 316.190596 115.536385 
L 330.184326 125.868128 
L 344.178056 137.302335 
L 358.171787 149.504756 
L 372.165517 161.967203 
L 386.159248 173.984695 
L 400.152978 184.64904 
L 414.146708 192.871427 
L 428.140439 197.449652 
L 442.134169 197.196763 
L 456.1279 191.144751 
L 470.12163 178.825897 
L 484.115361 160.611557 
L 498.109091 138.050147 
" style="fill:none;stroke:#1f77b4;stroke-linecap:square;stroke-width:3;"/>
    <defs>
     <path d="M 0 3 
C 0.795609 3 1.55874 2.683901 2.12132 2.12132 
C 2.683901 1.55874 3 0.795609 3 0 
C 3 -0.795609 2.683901 -1.55874 2.12132 -2.12132 
C 1.55874 -2.683901 0.795609 -3 0 -3 
C -0.795609 -3 -1.55874 -2.683901 -2.12132 -2.12132 
C -2.683901 -1.55874 -3 -0.795609 -3 0 
C -3 0.795609 -2.683901 1.55874 -2.12132 2.12132 
C -1.55874 2.683901 -0.795609 3 0 3 
z
" id="maecd38566f" style="stroke:#1f77b4;"/>
    </defs>
    <g clip-path="url(#p85557acb89)">
     <use style="fill:#1f77b4;stroke:#1f77b4;" x="92.290909" xlink:href="#maecd38566f" y="87.60424"/>
     <use style="fill:#1f77b4;stroke:#1f77b4;" x="106.284639" xlink:href="#maecd38566f" y="85.594461"/>
     <use style="fill:#1f77b4;stroke:#1f77b4;" x="120.27837" xlink:href="#maecd38566f" y="83.700349"/>
     <use style="fill:#1f77b4;stroke:#1f77b4;" x="134.2721" xlink:href="#maecd38566f" y="81.972964"/>
     <use style="fill:#1f77b4;stroke:#1f77b4;" x="148.265831" xlink:href="#maecd38566f" y="80.472925"/>
     <use style="fill:#1f77b4;stroke:#1f77b4;" x="162.259561" xlink:href="#maecd38566f" y="79.271363"/>
     <use style="fill:#1f77b4;stroke:#1f77b4;" x="176.253292" xlink:href="#maecd38566f" y="78.450706"/>
     <use style="fill:#1f77b4;stroke:#1f77b4;" x="190.247022" xlink:href="#maecd38566f" y="78.105124"/>
     <use style="fill:#1f77b4;stroke:#1f77b4;" x="204.240752" xlink:href="#maecd38566f" y="78.340464"/>
     <use style="fill:#1f77b4;stroke:#1f77b4;" x="218.234483" xlink:href="#maecd38566f" y="79.273371"/>
     <use style="fill:#1f77b4;stroke:#1f77b4;" x="232.228213" xlink:href="#maecd38566f" y="81.029265"/>
     <use style="fill:#1f77b4;stroke:#1f77b4;" x="246.221944" xlink:href="#maecd38566f" y="83.738709"/>
     <use style="fill:#1f77b4;stroke:#1f77b4;" x="260.215674" xlink:href="#maecd38566f" y="87.531643"/>
     <use style="fill:#1f77b4;stroke:#1f77b4;" x="274.209404" xlink:href="#maecd38566f" y="92.528853"/>
     <use style="fill:#1f77b4;stroke:#1f77b4;" x="288.203135" xlink:href="#maecd38566f" y="98.830004"/>
     <use style="fill:#1f77b4;stroke:#1f77b4;" x="302.196865" xlink:href="#maecd38566f" y="106.497597"/>
     <use style="fill:#1f77b4;stroke:#1f77b4;" x="316.190596" xlink:href="#maecd38566f" y="115.536385"/>
     <use style="fill:#1f77b4;stroke:#1f77b4;" x="330.184326" xlink:href="#maecd38566f" y="125.868128"/>
     <use style="fill:#1f77b4;stroke:#1f77b4;" x="344.178056" xlink:href="#maecd38566f" y="137.302335"/>
     <use style="fill:#1f77b4;stroke:#1f77b4;" x="358.171787" xlink:href="#maecd38566f" y="149.504756"/>
     <use style="fill:#1f77b4;stroke:#1f77b4;" x="372.165517" xlink:href="#maecd38566f" y="161.967203"/>
     <use style="fill:#1f77b4;stroke:#1f77b4;" x="386.159248" xlink:href="#maecd38566f" y="173.984695"/>
     <use style="fill:#1f77b4;stroke:#1f77b4;" x="400.152978" xlink:href="#maecd38566f" y="184.64904"/>
     <use style="fill:#1f77b4;stroke:#1f77b4;" x="414.146708" xlink:href="#maecd38566f" y="192.871427"/>
     <use style="fill:#1f77b4;stroke:#1f77b4;" x="428.140439" xlink:href="#maecd38566f" y="197.449652"/>
     <use style="fill:#1f77b4;stroke:#1f77b4;" x="442.134169" xlink:href="#maecd38566f" y="197.196763"/>
     <use style="fill:#1f77b4;stroke:#1f77b4;" x="456.1279" xlink:href="#maecd38566f" y="191.144751"/>
     <use style="fill:#1f77b4;stroke:#1f77b4;" x="470.12163" xlink:href="#maecd38566f" y="178.825897"/>
     <use style="fill:#1f77b4;stroke:#1f77b4;" x="484.115361" xlink:href="#maecd38566f" y="160.611557"/>
     <use style="fill:#1f77b4;stroke:#1f77b4;" x="498.109091" xlink:href="#maecd38566f" y="138.050147"/>
    </g>
   </g>
   <g id="line2d_2">
    <path clip-path="url(#p85557acb89)" d="M 92.290909 147.553909 
L 106.284639 142.520367 
L 120.27837 139.323053 
L 134.2721 138.067788 
L 148.265831 138.796118 
L 162.259561 141.483939 
L 176.253292 146.04229 
L 190.247022 152.320301 
L 204.240752 160.110186 
L 218.234483 169.154121 
L 232.228213 179.152774 
L 246.221944 189.775215 
L 260.215674 200.669869 
L 274.209404 211.476152 
L 288.203135 221.836402 
L 302.196865 231.407723 
L 316.190596 239.873328 
L 330.184326 246.953028 
L 344.178056 252.412503 
L 358.171787 256.071057 
L 372.165517 257.807603 
L 386.159248 257.564666 
L 400.152978 255.350285 
L 414.146708 251.237751 
L 428.140439 245.363179 
L 442.134169 237.921001 
L 456.1279 229.157535 
L 470.12163 219.362829 
L 484.115361 208.861062 
L 498.109091 197.999816 
" style="fill:none;stroke:#ff7f0e;stroke-linecap:square;stroke-width:3;"/>
    <defs>
     <path d="M 0 3 
C 0.795609 3 1.55874 2.683901 2.12132 2.12132 
C 2.683901 1.55874 3 0.795609 3 0 
C 3 -0.795609 2.683901 -1.55874 2.12132 -2.12132 
C 1.55874 -2.683901 0.795609 -3 0 -3 
C -0.795609 -3 -1.55874 -2.683901 -2.12132 -2.12132 
C -2.683901 -1.55874 -3 -0.795609 -3 0 
C -3 0.795609 -2.683901 1.55874 -2.12132 2.12132 
C -1.55874 2.683901 -0.795609 3 0 3 
z
" id="m5f6549fa99" style="stroke:#ff7f0e;"/>
    </defs>
    <g clip-path="url(#p85557acb89)">
     <use style="fill:#ff7f0e;stroke:#ff7f0e;" x="92.290909" xlink:href="#m5f6549fa99" y="147.553909"/>
     <use style="fill:#ff7f0e;stroke:#ff7f0e;" x="106.284639" xlink:href="#m5f6549fa99" y="142.520367"/>
     <use style="fill:#ff7f0e;stroke:#ff7f0e;" x="120.27837" xlink:href="#m5f6549fa99" y="139.323053"/>
     <use style="fill:#ff7f0e;stroke:#ff7f0e;" x="134.2721" xlink:href="#m5f6549fa99" y="138.067788"/>
     <use style="fill:#ff7f0e;stroke:#ff7f0e;" x="148.265831" xlink:href="#m5f6549fa99" y="138.796118"/>
     <use style="fill:#ff7f0e;stroke:#ff7f0e;" x="162.259561" xlink:href="#m5f6549fa99" y="141.483939"/>
     <use style="fill:#ff7f0e;stroke:#ff7f0e;" x="176.253292" xlink:href="#m5f6549fa99" y="146.04229"/>
     <use style="fill:#ff7f0e;stroke:#ff7f0e;" x="190.247022" xlink:href="#m5f6549fa99" y="152.320301"/>
     <use style="fill:#ff7f0e;stroke:#ff7f0e;" x="204.240752" xlink:href="#m5f6549fa99" y="160.110186"/>
     <use style="fill:#ff7f0e;stroke:#ff7f0e;" x="218.234483" xlink:href="#m5f6549fa99" y="169.154121"/>
     <use style="fill:#ff7f0e;stroke:#ff7f0e;" x="232.228213" xlink:href="#m5f6549fa99" y="179.152774"/>
     <use style="fill:#ff7f0e;stroke:#ff7f0e;" x="246.221944" xlink:href="#m5f6549fa99" y="189.775215"/>
     <use style="fill:#ff7f0e;stroke:#ff7f0e;" x="260.215674" xlink:href="#m5f6549fa99" y="200.669869"/>
     <use style="fill:#ff7f0e;stroke:#ff7f0e;" x="274.209404" xlink:href="#m5f6549fa99" y="211.476152"/>
     <use style="fill:#ff7f0e;stroke:#ff7f0e;" x="288.203135" xlink:href="#m5f6549fa99" y="221.836402"/>
     <use style="fill:#ff7f0e;stroke:#ff7f0e;" x="302.196865" xlink:href="#m5f6549fa99" y="231.407723"/>
     <use style="fill:#ff7f0e;stroke:#ff7f0e;" x="316.190596" xlink:href="#m5f6549fa99" y="239.873328"/>
     <use style="fill:#ff7f0e;stroke:#ff7f0e;" x="330.184326" xlink:href="#m5f6549fa99" y="246.953028"/>
     <use style="fill:#ff7f0e;stroke:#ff7f0e;" x="344.178056" xlink:href="#m5f6549fa99" y="252.412503"/>
     <use style="fill:#ff7f0e;stroke:#ff7f0e;" x="358.171787" xlink:href="#m5f6549fa99" y="256.071057"/>
     <use style="fill:#ff7f0e;stroke:#ff7f0e;" x="372.165517" xlink:href="#m5f6549fa99" y="257.807603"/>
     <use style="fill:#ff7f0e;stroke:#ff7f0e;" x="386.159248" xlink:href="#m5f6549fa99" y="257.564666"/>
     <use style="fill:#ff7f0e;stroke:#ff7f0e;" x="400.152978" xlink:href="#m5f6549fa99" y="255.350285"/>
     <use style="fill:#ff7f0e;stroke:#ff7f0e;" x="414.146708" xlink:href="#m5f6549fa99" y="251.237751"/>
     <use style="fill:#ff7f0e;stroke:#ff7f0e;" x="428.140439" xlink:href="#m5f6549fa99" y="245.363179"/>
     <use style="fill:#ff7f0e;stroke:#ff7f0e;" x="442.134169" xlink:href="#m5f6549fa99" y="237.921001"/>
     <use style="fill:#ff7f0e;stroke:#ff7f0e;" x="456.1279" xlink:href="#m5f6549fa99" y="229.157535"/>
     <use style="fill:#ff7f0e;stroke:#ff7f0e;" x="470.12163" xlink:href="#m5f6549fa99" y="219.362829"/>
     <use style="fill:#ff7f0e;stroke:#ff7f0e;" x="484.115361" xlink:href="#m5f6549fa99" y="208.861062"/>
     <use style="fill:#ff7f0e;stroke:#ff7f0e;" x="498.109091" xlink:href="#m5f6549fa99" y="197.999816"/>
    </g>
   </g>
   <g id="line2d_3">
    <path clip-path="url(#p85557acb89)" d="M 92.290909 87.60424 
L 92.290909 147.553909 
" style="fill:none;stroke:#ff0000;stroke-dasharray:7.4,3.2;stroke-dashoffset:0;stroke-opacity:0.5;stroke-width:2;"/>
   </g>
   <g id="line2d_4">
    <path clip-path="url(#p85557acb89)" d="M 106.284639 85.594461 
L 106.284639 142.520367 
" style="fill:none;stroke:#ff0000;stroke-dasharray:7.4,3.2;stroke-dashoffset:0;stroke-opacity:0.5;stroke-width:2;"/>
   </g>
   <g id="line2d_5">
    <path clip-path="url(#p85557acb89)" d="M 120.27837 83.700349 
L 120.27837 139.323053 
" style="fill:none;stroke:#ff0000;stroke-dasharray:7.4,3.2;stroke-dashoffset:0;stroke-opacity:0.5;stroke-width:2;"/>
   </g>
   <g id="line2d_6">
    <path clip-path="url(#p85557acb89)" d="M 134.2721 81.972964 
L 134.2721 138.067788 
" style="fill:none;stroke:#ff0000;stroke-dasharray:7.4,3.2;stroke-dashoffset:0;stroke-opacity:0.5;stroke-width:2;"/>
   </g>
   <g id="line2d_7">
    <path clip-path="url(#p85557acb89)" d="M 148.265831 80.472925 
L 148.265831 138.796118 
" style="fill:none;stroke:#ff0000;stroke-dasharray:7.4,3.2;stroke-dashoffset:0;stroke-opacity:0.5;stroke-width:2;"/>
   </g>
   <g id="line2d_8">
    <path clip-path="url(#p85557acb89)" d="M 162.259561 79.271363 
L 162.259561 141.483939 
" style="fill:none;stroke:#ff0000;stroke-dasharray:7.4,3.2;stroke-dashoffset:0;stroke-opacity:0.5;stroke-width:2;"/>
   </g>
   <g id="line2d_9">
    <path clip-path="url(#p85557acb89)" d="M 176.253292 78.450706 
L 176.253292 146.04229 
" style="fill:none;stroke:#ff0000;stroke-dasharray:7.4,3.2;stroke-dashoffset:0;stroke-opacity:0.5;stroke-width:2;"/>
   </g>
   <g id="line2d_10">
    <path clip-path="url(#p85557acb89)" d="M 190.247022 78.105124 
L 190.247022 152.320301 
" style="fill:none;stroke:#ff0000;stroke-dasharray:7.4,3.2;stroke-dashoffset:0;stroke-opacity:0.5;stroke-width:2;"/>
   </g>
   <g id="line2d_11">
    <path clip-path="url(#p85557acb89)" d="M 204.240752 78.340464 
L 204.240752 160.110186 
" style="fill:none;stroke:#ff0000;stroke-dasharray:7.4,3.2;stroke-dashoffset:0;stroke-opacity:0.5;stroke-width:2;"/>
   </g>
   <g id="line2d_12">
    <path clip-path="url(#p85557acb89)" d="M 218.234483 79.273371 
L 218.234483 169.154121 
" style="fill:none;stroke:#ff0000;stroke-dasharray:7.4,3.2;stroke-dashoffset:0;stroke-opacity:0.5;stroke-width:2;"/>
   </g>
   <g id="line2d_13">
    <path clip-path="url(#p85557acb89)" d="M 232.228213 81.029265 
L 232.228213 179.152774 
" style="fill:none;stroke:#ff0000;stroke-dasharray:7.4,3.2;stroke-dashoffset:0;stroke-opacity:0.5;stroke-width:2;"/>
   </g>
   <g id="line2d_14">
    <path clip-path="url(#p85557acb89)" d="M 246.221944 83.738709 
L 246.221944 189.775215 
" style="fill:none;stroke:#ff0000;stroke-dasharray:7.4,3.2;stroke-dashoffset:0;stroke-opacity:0.5;stroke-width:2;"/>
   </g>
   <g id="line2d_15">
    <path clip-path="url(#p85557acb89)" d="M 260.215674 87.531643 
L 260.215674 200.669869 
" style="fill:none;stroke:#ff0000;stroke-dasharray:7.4,3.2;stroke-dashoffset:0;stroke-opacity:0.5;stroke-width:2;"/>
   </g>
   <g id="line2d_16">
    <path clip-path="url(#p85557acb89)" d="M 274.209404 92.528853 
L 274.209404 211.476152 
" style="fill:none;stroke:#ff0000;stroke-dasharray:7.4,3.2;stroke-dashoffset:0;stroke-opacity:0.5;stroke-width:2;"/>
   </g>
   <g id="line2d_17">
    <path clip-path="url(#p85557acb89)" d="M 288.203135 98.830004 
L 288.203135 221.836402 
" style="fill:none;stroke:#ff0000;stroke-dasharray:7.4,3.2;stroke-dashoffset:0;stroke-opacity:0.5;stroke-width:2;"/>
   </g>
   <g id="line2d_18">
    <path clip-path="url(#p85557acb89)" d="M 302.196865 106.497597 
L 302.196865 231.407723 
" style="fill:none;stroke:#ff0000;stroke-dasharray:7.4,3.2;stroke-dashoffset:0;stroke-opacity:0.5;stroke-width:2;"/>
   </g>
   <g id="line2d_19">
    <path clip-path="url(#p85557acb89)" d="M 316.190596 115.536385 
L 316.190596 239.873328 
" style="fill:none;stroke:#ff0000;stroke-dasharray:7.4,3.2;stroke-dashoffset:0;stroke-opacity:0.5;stroke-width:2;"/>
   </g>
   <g id="line2d_20">
    <path clip-path="url(#p85557acb89)" d="M 330.184326 125.868128 
L 330.184326 246.953028 
" style="fill:none;stroke:#ff0000;stroke-dasharray:7.4,3.2;stroke-dashoffset:0;stroke-opacity:0.5;stroke-width:2;"/>
   </g>
   <g id="line2d_21">
    <path clip-path="url(#p85557acb89)" d="M 344.178056 137.302335 
L 344.178056 252.412503 
" style="fill:none;stroke:#ff0000;stroke-dasharray:7.4,3.2;stroke-dashoffset:0;stroke-opacity:0.5;stroke-width:2;"/>
   </g>
   <g id="line2d_22">
    <path clip-path="url(#p85557acb89)" d="M 358.171787 149.504756 
L 358.171787 256.071057 
" style="fill:none;stroke:#ff0000;stroke-dasharray:7.4,3.2;stroke-dashoffset:0;stroke-opacity:0.5;stroke-width:2;"/>
   </g>
   <g id="line2d_23">
    <path clip-path="url(#p85557acb89)" d="M 372.165517 161.967203 
L 372.165517 257.807603 
" style="fill:none;stroke:#ff0000;stroke-dasharray:7.4,3.2;stroke-dashoffset:0;stroke-opacity:0.5;stroke-width:2;"/>
   </g>
   <g id="line2d_24">
    <path clip-path="url(#p85557acb89)" d="M 386.159248 173.984695 
L 386.159248 257.564666 
" style="fill:none;stroke:#ff0000;stroke-dasharray:7.4,3.2;stroke-dashoffset:0;stroke-opacity:0.5;stroke-width:2;"/>
   </g>
   <g id="line2d_25">
    <path clip-path="url(#p85557acb89)" d="M 400.152978 184.64904 
L 400.152978 255.350285 
" style="fill:none;stroke:#ff0000;stroke-dasharray:7.4,3.2;stroke-dashoffset:0;stroke-opacity:0.5;stroke-width:2;"/>
   </g>
   <g id="line2d_26">
    <path clip-path="url(#p85557acb89)" d="M 414.146708 192.871427 
L 414.146708 251.237751 
" style="fill:none;stroke:#ff0000;stroke-dasharray:7.4,3.2;stroke-dashoffset:0;stroke-opacity:0.5;stroke-width:2;"/>
   </g>
   <g id="line2d_27">
    <path clip-path="url(#p85557acb89)" d="M 428.140439 197.449652 
L 428.140439 245.363179 
" style="fill:none;stroke:#ff0000;stroke-dasharray:7.4,3.2;stroke-dashoffset:0;stroke-opacity:0.5;stroke-width:2;"/>
   </g>
   <g id="line2d_28">
    <path clip-path="url(#p85557acb89)" d="M 442.134169 197.196763 
L 442.134169 237.921001 
" style="fill:none;stroke:#ff0000;stroke-dasharray:7.4,3.2;stroke-dashoffset:0;stroke-opacity:0.5;stroke-width:2;"/>
   </g>
   <g id="line2d_29">
    <path clip-path="url(#p85557acb89)" d="M 456.1279 191.144751 
L 456.1279 229.157535 
" style="fill:none;stroke:#ff0000;stroke-dasharray:7.4,3.2;stroke-dashoffset:0;stroke-opacity:0.5;stroke-width:2;"/>
   </g>
   <g id="line2d_30">
    <path clip-path="url(#p85557acb89)" d="M 470.12163 178.825897 
L 470.12163 219.362829 
" style="fill:none;stroke:#ff0000;stroke-dasharray:7.4,3.2;stroke-dashoffset:0;stroke-opacity:0.5;stroke-width:2;"/>
   </g>
   <g id="line2d_31">
    <path clip-path="url(#p85557acb89)" d="M 484.115361 160.611557 
L 484.115361 208.861062 
" style="fill:none;stroke:#ff0000;stroke-dasharray:7.4,3.2;stroke-dashoffset:0;stroke-opacity:0.5;stroke-width:2;"/>
   </g>
   <g id="line2d_32">
    <path clip-path="url(#p85557acb89)" d="M 498.109091 138.050147 
L 498.109091 197.999816 
" style="fill:none;stroke:#ff0000;stroke-dasharray:7.4,3.2;stroke-dashoffset:0;stroke-opacity:0.5;stroke-width:2;"/>
   </g>
   <g id="patch_3">
    <path d="M 72 266.792727 
L 72 69.12 
" style="fill:none;stroke:#000000;stroke-linecap:square;stroke-linejoin:miter;stroke-width:0.8;"/>
   </g>
   <g id="patch_4">
    <path d="M 518.4 266.792727 
L 518.4 69.12 
" style="fill:none;stroke:#000000;stroke-linecap:square;stroke-linejoin:miter;stroke-width:0.8;"/>
   </g>
   <g id="patch_5">
    <path d="M 72 266.792727 
L 518.4 266.792727 
" style="fill:none;stroke:#000000;stroke-linecap:square;stroke-linejoin:miter;stroke-width:0.8;"/>
   </g>
   <g id="patch_6">
    <path d="M 72 69.12 
L 518.4 69.12 
" style="fill:none;stroke:#000000;stroke-linecap:square;stroke-linejoin:miter;stroke-width:0.8;"/>
   </g>
   <g id="text_1">
    <!-- Euclidian distance -->
    <g transform="translate(227.058984 63.12)scale(0.15 -0.15)">
     <defs>
      <path d="M 9.8125 72.90625 
L 55.90625 72.90625 
L 55.90625 64.59375 
L 19.671875 64.59375 
L 19.671875 43.015625 
L 54.390625 43.015625 
L 54.390625 34.71875 
L 19.671875 34.71875 
L 19.671875 8.296875 
L 56.78125 8.296875 
L 56.78125 0 
L 9.8125 0 
z
" id="DejaVuSans-69"/>
      <path d="M 8.5 21.578125 
L 8.5 54.6875 
L 17.484375 54.6875 
L 17.484375 21.921875 
Q 17.484375 14.15625 20.5 10.265625 
Q 23.53125 6.390625 29.59375 6.390625 
Q 36.859375 6.390625 41.078125 11.03125 
Q 45.3125 15.671875 45.3125 23.6875 
L 45.3125 54.6875 
L 54.296875 54.6875 
L 54.296875 0 
L 45.3125 0 
L 45.3125 8.40625 
Q 42.046875 3.421875 37.71875 1 
Q 33.40625 -1.421875 27.6875 -1.421875 
Q 18.265625 -1.421875 13.375 4.4375 
Q 8.5 10.296875 8.5 21.578125 
z
M 31.109375 56 
z
" id="DejaVuSans-117"/>
      <path d="M 48.78125 52.59375 
L 48.78125 44.1875 
Q 44.96875 46.296875 41.140625 47.34375 
Q 37.3125 48.390625 33.40625 48.390625 
Q 24.65625 48.390625 19.8125 42.84375 
Q 14.984375 37.3125 14.984375 27.296875 
Q 14.984375 17.28125 19.8125 11.734375 
Q 24.65625 6.203125 33.40625 6.203125 
Q 37.3125 6.203125 41.140625 7.25 
Q 44.96875 8.296875 48.78125 10.40625 
L 48.78125 2.09375 
Q 45.015625 0.34375 40.984375 -0.53125 
Q 36.96875 -1.421875 32.421875 -1.421875 
Q 20.0625 -1.421875 12.78125 6.34375 
Q 5.515625 14.109375 5.515625 27.296875 
Q 5.515625 40.671875 12.859375 48.328125 
Q 20.21875 56 33.015625 56 
Q 37.15625 56 41.109375 55.140625 
Q 45.0625 54.296875 48.78125 52.59375 
z
" id="DejaVuSans-99"/>
      <path d="M 9.421875 75.984375 
L 18.40625 75.984375 
L 18.40625 0 
L 9.421875 0 
z
" id="DejaVuSans-108"/>
      <path d="M 9.421875 54.6875 
L 18.40625 54.6875 
L 18.40625 0 
L 9.421875 0 
z
M 9.421875 75.984375 
L 18.40625 75.984375 
L 18.40625 64.59375 
L 9.421875 64.59375 
z
" id="DejaVuSans-105"/>
      <path d="M 45.40625 46.390625 
L 45.40625 75.984375 
L 54.390625 75.984375 
L 54.390625 0 
L 45.40625 0 
L 45.40625 8.203125 
Q 42.578125 3.328125 38.25 0.953125 
Q 33.9375 -1.421875 27.875 -1.421875 
Q 17.96875 -1.421875 11.734375 6.484375 
Q 5.515625 14.40625 5.515625 27.296875 
Q 5.515625 40.1875 11.734375 48.09375 
Q 17.96875 56 27.875 56 
Q 33.9375 56 38.25 53.625 
Q 42.578125 51.265625 45.40625 46.390625 
z
M 14.796875 27.296875 
Q 14.796875 17.390625 18.875 11.75 
Q 22.953125 6.109375 30.078125 6.109375 
Q 37.203125 6.109375 41.296875 11.75 
Q 45.40625 17.390625 45.40625 27.296875 
Q 45.40625 37.203125 41.296875 42.84375 
Q 37.203125 48.484375 30.078125 48.484375 
Q 22.953125 48.484375 18.875 42.84375 
Q 14.796875 37.203125 14.796875 27.296875 
z
" id="DejaVuSans-100"/>
      <path d="M 34.28125 27.484375 
Q 23.390625 27.484375 19.1875 25 
Q 14.984375 22.515625 14.984375 16.5 
Q 14.984375 11.71875 18.140625 8.90625 
Q 21.296875 6.109375 26.703125 6.109375 
Q 34.1875 6.109375 38.703125 11.40625 
Q 43.21875 16.703125 43.21875 25.484375 
L 43.21875 27.484375 
z
M 52.203125 31.203125 
L 52.203125 0 
L 43.21875 0 
L 43.21875 8.296875 
Q 40.140625 3.328125 35.546875 0.953125 
Q 30.953125 -1.421875 24.3125 -1.421875 
Q 15.921875 -1.421875 10.953125 3.296875 
Q 6 8.015625 6 15.921875 
Q 6 25.140625 12.171875 29.828125 
Q 18.359375 34.515625 30.609375 34.515625 
L 43.21875 34.515625 
L 43.21875 35.40625 
Q 43.21875 41.609375 39.140625 45 
Q 35.0625 48.390625 27.6875 48.390625 
Q 23 48.390625 18.546875 47.265625 
Q 14.109375 46.140625 10.015625 43.890625 
L 10.015625 52.203125 
Q 14.9375 54.109375 19.578125 55.046875 
Q 24.21875 56 28.609375 56 
Q 40.484375 56 46.34375 49.84375 
Q 52.203125 43.703125 52.203125 31.203125 
z
" id="DejaVuSans-97"/>
      <path d="M 54.890625 33.015625 
L 54.890625 0 
L 45.90625 0 
L 45.90625 32.71875 
Q 45.90625 40.484375 42.875 44.328125 
Q 39.84375 48.1875 33.796875 48.1875 
Q 26.515625 48.1875 22.3125 43.546875 
Q 18.109375 38.921875 18.109375 30.90625 
L 18.109375 0 
L 9.078125 0 
L 9.078125 54.6875 
L 18.109375 54.6875 
L 18.109375 46.1875 
Q 21.34375 51.125 25.703125 53.5625 
Q 30.078125 56 35.796875 56 
Q 45.21875 56 50.046875 50.171875 
Q 54.890625 44.34375 54.890625 33.015625 
z
" id="DejaVuSans-110"/>
      <path id="DejaVuSans-32"/>
      <path d="M 44.28125 53.078125 
L 44.28125 44.578125 
Q 40.484375 46.53125 36.375 47.5 
Q 32.28125 48.484375 27.875 48.484375 
Q 21.1875 48.484375 17.84375 46.4375 
Q 14.5 44.390625 14.5 40.28125 
Q 14.5 37.15625 16.890625 35.375 
Q 19.28125 33.59375 26.515625 31.984375 
L 29.59375 31.296875 
Q 39.15625 29.25 43.1875 25.515625 
Q 47.21875 21.78125 47.21875 15.09375 
Q 47.21875 7.46875 41.1875 3.015625 
Q 35.15625 -1.421875 24.609375 -1.421875 
Q 20.21875 -1.421875 15.453125 -0.5625 
Q 10.6875 0.296875 5.421875 2 
L 5.421875 11.28125 
Q 10.40625 8.6875 15.234375 7.390625 
Q 20.0625 6.109375 24.8125 6.109375 
Q 31.15625 6.109375 34.5625 8.28125 
Q 37.984375 10.453125 37.984375 14.40625 
Q 37.984375 18.0625 35.515625 20.015625 
Q 33.0625 21.96875 24.703125 23.78125 
L 21.578125 24.515625 
Q 13.234375 26.265625 9.515625 29.90625 
Q 5.8125 33.546875 5.8125 39.890625 
Q 5.8125 47.609375 11.28125 51.796875 
Q 16.75 56 26.8125 56 
Q 31.78125 56 36.171875 55.265625 
Q 40.578125 54.546875 44.28125 53.078125 
z
" id="DejaVuSans-115"/>
      <path d="M 18.3125 70.21875 
L 18.3125 54.6875 
L 36.8125 54.6875 
L 36.8125 47.703125 
L 18.3125 47.703125 
L 18.3125 18.015625 
Q 18.3125 11.328125 20.140625 9.421875 
Q 21.96875 7.515625 27.59375 7.515625 
L 36.8125 7.515625 
L 36.8125 0 
L 27.59375 0 
Q 17.1875 0 13.234375 3.875 
Q 9.28125 7.765625 9.28125 18.015625 
L 9.28125 47.703125 
L 2.6875 47.703125 
L 2.6875 54.6875 
L 9.28125 54.6875 
L 9.28125 70.21875 
z
" id="DejaVuSans-116"/>
      <path d="M 56.203125 29.59375 
L 56.203125 25.203125 
L 14.890625 25.203125 
Q 15.484375 15.921875 20.484375 11.0625 
Q 25.484375 6.203125 34.421875 6.203125 
Q 39.59375 6.203125 44.453125 7.46875 
Q 49.3125 8.734375 54.109375 11.28125 
L 54.109375 2.78125 
Q 49.265625 0.734375 44.1875 -0.34375 
Q 39.109375 -1.421875 33.890625 -1.421875 
Q 20.796875 -1.421875 13.15625 6.1875 
Q 5.515625 13.8125 5.515625 26.8125 
Q 5.515625 40.234375 12.765625 48.109375 
Q 20.015625 56 32.328125 56 
Q 43.359375 56 49.78125 48.890625 
Q 56.203125 41.796875 56.203125 29.59375 
z
M 47.21875 32.234375 
Q 47.125 39.59375 43.09375 43.984375 
Q 39.0625 48.390625 32.421875 48.390625 
Q 24.90625 48.390625 20.390625 44.140625 
Q 15.875 39.890625 15.1875 32.171875 
z
" id="DejaVuSans-101"/>
     </defs>
     <use xlink:href="#DejaVuSans-69"/>
     <use x="63.183594" xlink:href="#DejaVuSans-117"/>
     <use x="126.5625" xlink:href="#DejaVuSans-99"/>
     <use x="181.542969" xlink:href="#DejaVuSans-108"/>
     <use x="209.326172" xlink:href="#DejaVuSans-105"/>
     <use x="237.109375" xlink:href="#DejaVuSans-100"/>
     <use x="300.585938" xlink:href="#DejaVuSans-105"/>
     <use x="328.369141" xlink:href="#DejaVuSans-97"/>
     <use x="389.648438" xlink:href="#DejaVuSans-110"/>
     <use x="453.027344" xlink:href="#DejaVuSans-32"/>
     <use x="484.814453" xlink:href="#DejaVuSans-100"/>
     <use x="548.291016" xlink:href="#DejaVuSans-105"/>
     <use x="576.074219" xlink:href="#DejaVuSans-115"/>
     <use x="628.173828" xlink:href="#DejaVuSans-116"/>
     <use x="667.382812" xlink:href="#DejaVuSans-97"/>
     <use x="728.662109" xlink:href="#DejaVuSans-110"/>
     <use x="792.041016" xlink:href="#DejaVuSans-99"/>
     <use x="847.021484" xlink:href="#DejaVuSans-101"/>
    </g>
   </g>
  </g>
  <g id="axes_2">
   <g id="patch_7">
    <path d="M 72 504 
L 518.4 504 
L 518.4 306.327273 
L 72 306.327273 
z
" style="fill:#ffffff;"/>
   </g>
   <g id="matplotlib.axis_3"/>
   <g id="matplotlib.axis_4"/>
   <g id="line2d_33">
    <path clip-path="url(#pb0a4976f4a)" d="M 92.290909 324.811513 
L 106.284639 322.801734 
L 120.27837 320.907622 
L 134.2721 319.180237 
L 148.265831 317.680197 
L 162.259561 316.478636 
L 176.253292 315.657978 
L 190.247022 315.312397 
L 204.240752 315.547736 
L 218.234483 316.480644 
L 232.228213 318.236537 
L 246.221944 320.945981 
L 260.215674 324.738916 
L 274.209404 329.736126 
L 288.203135 336.037276 
L 302.196865 343.70487 
L 316.190596 352.743657 
L 330.184326 363.075401 
L 344.178056 374.509608 
L 358.171787 386.712029 
L 372.165517 399.174476 
L 386.159248 411.191968 
L 400.152978 421.856313 
L 414.146708 430.0787 
L 428.140439 434.656925 
L 442.134169 434.404036 
L 456.1279 428.352023 
L 470.12163 416.03317 
L 484.115361 397.81883 
L 498.109091 375.25742 
" style="fill:none;stroke:#1f77b4;stroke-linecap:square;stroke-width:3;"/>
    <g clip-path="url(#pb0a4976f4a)">
     <use style="fill:#1f77b4;stroke:#1f77b4;" x="92.290909" xlink:href="#maecd38566f" y="324.811513"/>
     <use style="fill:#1f77b4;stroke:#1f77b4;" x="106.284639" xlink:href="#maecd38566f" y="322.801734"/>
     <use style="fill:#1f77b4;stroke:#1f77b4;" x="120.27837" xlink:href="#maecd38566f" y="320.907622"/>
     <use style="fill:#1f77b4;stroke:#1f77b4;" x="134.2721" xlink:href="#maecd38566f" y="319.180237"/>
     <use style="fill:#1f77b4;stroke:#1f77b4;" x="148.265831" xlink:href="#maecd38566f" y="317.680197"/>
     <use style="fill:#1f77b4;stroke:#1f77b4;" x="162.259561" xlink:href="#maecd38566f" y="316.478636"/>
     <use style="fill:#1f77b4;stroke:#1f77b4;" x="176.253292" xlink:href="#maecd38566f" y="315.657978"/>
     <use style="fill:#1f77b4;stroke:#1f77b4;" x="190.247022" xlink:href="#maecd38566f" y="315.312397"/>
     <use style="fill:#1f77b4;stroke:#1f77b4;" x="204.240752" xlink:href="#maecd38566f" y="315.547736"/>
     <use style="fill:#1f77b4;stroke:#1f77b4;" x="218.234483" xlink:href="#maecd38566f" y="316.480644"/>
     <use style="fill:#1f77b4;stroke:#1f77b4;" x="232.228213" xlink:href="#maecd38566f" y="318.236537"/>
     <use style="fill:#1f77b4;stroke:#1f77b4;" x="246.221944" xlink:href="#maecd38566f" y="320.945981"/>
     <use style="fill:#1f77b4;stroke:#1f77b4;" x="260.215674" xlink:href="#maecd38566f" y="324.738916"/>
     <use style="fill:#1f77b4;stroke:#1f77b4;" x="274.209404" xlink:href="#maecd38566f" y="329.736126"/>
     <use style="fill:#1f77b4;stroke:#1f77b4;" x="288.203135" xlink:href="#maecd38566f" y="336.037276"/>
     <use style="fill:#1f77b4;stroke:#1f77b4;" x="302.196865" xlink:href="#maecd38566f" y="343.70487"/>
     <use style="fill:#1f77b4;stroke:#1f77b4;" x="316.190596" xlink:href="#maecd38566f" y="352.743657"/>
     <use style="fill:#1f77b4;stroke:#1f77b4;" x="330.184326" xlink:href="#maecd38566f" y="363.075401"/>
     <use style="fill:#1f77b4;stroke:#1f77b4;" x="344.178056" xlink:href="#maecd38566f" y="374.509608"/>
     <use style="fill:#1f77b4;stroke:#1f77b4;" x="358.171787" xlink:href="#maecd38566f" y="386.712029"/>
     <use style="fill:#1f77b4;stroke:#1f77b4;" x="372.165517" xlink:href="#maecd38566f" y="399.174476"/>
     <use style="fill:#1f77b4;stroke:#1f77b4;" x="386.159248" xlink:href="#maecd38566f" y="411.191968"/>
     <use style="fill:#1f77b4;stroke:#1f77b4;" x="400.152978" xlink:href="#maecd38566f" y="421.856313"/>
     <use style="fill:#1f77b4;stroke:#1f77b4;" x="414.146708" xlink:href="#maecd38566f" y="430.0787"/>
     <use style="fill:#1f77b4;stroke:#1f77b4;" x="428.140439" xlink:href="#maecd38566f" y="434.656925"/>
     <use style="fill:#1f77b4;stroke:#1f77b4;" x="442.134169" xlink:href="#maecd38566f" y="434.404036"/>
     <use style="fill:#1f77b4;stroke:#1f77b4;" x="456.1279" xlink:href="#maecd38566f" y="428.352023"/>
     <use style="fill:#1f77b4;stroke:#1f77b4;" x="470.12163" xlink:href="#maecd38566f" y="416.03317"/>
     <use style="fill:#1f77b4;stroke:#1f77b4;" x="484.115361" xlink:href="#maecd38566f" y="397.81883"/>
     <use style="fill:#1f77b4;stroke:#1f77b4;" x="498.109091" xlink:href="#maecd38566f" y="375.25742"/>
    </g>
   </g>
   <g id="line2d_34">
    <path clip-path="url(#pb0a4976f4a)" d="M 92.290909 384.761182 
L 106.284639 379.72764 
L 120.27837 376.530325 
L 134.2721 375.27506 
L 148.265831 376.003391 
L 162.259561 378.691212 
L 176.253292 383.249563 
L 190.247022 389.527574 
L 204.240752 397.317459 
L 218.234483 406.361394 
L 232.228213 416.360046 
L 246.221944 426.982488 
L 260.215674 437.877142 
L 274.209404 448.683425 
L 288.203135 459.043675 
L 302.196865 468.614996 
L 316.190596 477.080601 
L 330.184326 484.160301 
L 344.178056 489.619775 
L 358.171787 493.27833 
L 372.165517 495.014876 
L 386.159248 494.771938 
L 400.152978 492.557558 
L 414.146708 488.445024 
L 428.140439 482.570452 
L 442.134169 475.128274 
L 456.1279 466.364808 
L 470.12163 456.570102 
L 484.115361 446.068335 
L 498.109091 435.207089 
" style="fill:none;stroke:#ff7f0e;stroke-linecap:square;stroke-width:3;"/>
    <g clip-path="url(#pb0a4976f4a)">
     <use style="fill:#ff7f0e;stroke:#ff7f0e;" x="92.290909" xlink:href="#m5f6549fa99" y="384.761182"/>
     <use style="fill:#ff7f0e;stroke:#ff7f0e;" x="106.284639" xlink:href="#m5f6549fa99" y="379.72764"/>
     <use style="fill:#ff7f0e;stroke:#ff7f0e;" x="120.27837" xlink:href="#m5f6549fa99" y="376.530325"/>
     <use style="fill:#ff7f0e;stroke:#ff7f0e;" x="134.2721" xlink:href="#m5f6549fa99" y="375.27506"/>
     <use style="fill:#ff7f0e;stroke:#ff7f0e;" x="148.265831" xlink:href="#m5f6549fa99" y="376.003391"/>
     <use style="fill:#ff7f0e;stroke:#ff7f0e;" x="162.259561" xlink:href="#m5f6549fa99" y="378.691212"/>
     <use style="fill:#ff7f0e;stroke:#ff7f0e;" x="176.253292" xlink:href="#m5f6549fa99" y="383.249563"/>
     <use style="fill:#ff7f0e;stroke:#ff7f0e;" x="190.247022" xlink:href="#m5f6549fa99" y="389.527574"/>
     <use style="fill:#ff7f0e;stroke:#ff7f0e;" x="204.240752" xlink:href="#m5f6549fa99" y="397.317459"/>
     <use style="fill:#ff7f0e;stroke:#ff7f0e;" x="218.234483" xlink:href="#m5f6549fa99" y="406.361394"/>
     <use style="fill:#ff7f0e;stroke:#ff7f0e;" x="232.228213" xlink:href="#m5f6549fa99" y="416.360046"/>
     <use style="fill:#ff7f0e;stroke:#ff7f0e;" x="246.221944" xlink:href="#m5f6549fa99" y="426.982488"/>
     <use style="fill:#ff7f0e;stroke:#ff7f0e;" x="260.215674" xlink:href="#m5f6549fa99" y="437.877142"/>
     <use style="fill:#ff7f0e;stroke:#ff7f0e;" x="274.209404" xlink:href="#m5f6549fa99" y="448.683425"/>
     <use style="fill:#ff7f0e;stroke:#ff7f0e;" x="288.203135" xlink:href="#m5f6549fa99" y="459.043675"/>
     <use style="fill:#ff7f0e;stroke:#ff7f0e;" x="302.196865" xlink:href="#m5f6549fa99" y="468.614996"/>
     <use style="fill:#ff7f0e;stroke:#ff7f0e;" x="316.190596" xlink:href="#m5f6549fa99" y="477.080601"/>
     <use style="fill:#ff7f0e;stroke:#ff7f0e;" x="330.184326" xlink:href="#m5f6549fa99" y="484.160301"/>
     <use style="fill:#ff7f0e;stroke:#ff7f0e;" x="344.178056" xlink:href="#m5f6549fa99" y="489.619775"/>
     <use style="fill:#ff7f0e;stroke:#ff7f0e;" x="358.171787" xlink:href="#m5f6549fa99" y="493.27833"/>
     <use style="fill:#ff7f0e;stroke:#ff7f0e;" x="372.165517" xlink:href="#m5f6549fa99" y="495.014876"/>
     <use style="fill:#ff7f0e;stroke:#ff7f0e;" x="386.159248" xlink:href="#m5f6549fa99" y="494.771938"/>
     <use style="fill:#ff7f0e;stroke:#ff7f0e;" x="400.152978" xlink:href="#m5f6549fa99" y="492.557558"/>
     <use style="fill:#ff7f0e;stroke:#ff7f0e;" x="414.146708" xlink:href="#m5f6549fa99" y="488.445024"/>
     <use style="fill:#ff7f0e;stroke:#ff7f0e;" x="428.140439" xlink:href="#m5f6549fa99" y="482.570452"/>
     <use style="fill:#ff7f0e;stroke:#ff7f0e;" x="442.134169" xlink:href="#m5f6549fa99" y="475.128274"/>
     <use style="fill:#ff7f0e;stroke:#ff7f0e;" x="456.1279" xlink:href="#m5f6549fa99" y="466.364808"/>
     <use style="fill:#ff7f0e;stroke:#ff7f0e;" x="470.12163" xlink:href="#m5f6549fa99" y="456.570102"/>
     <use style="fill:#ff7f0e;stroke:#ff7f0e;" x="484.115361" xlink:href="#m5f6549fa99" y="446.068335"/>
     <use style="fill:#ff7f0e;stroke:#ff7f0e;" x="498.109091" xlink:href="#m5f6549fa99" y="435.207089"/>
    </g>
   </g>
   <g id="line2d_35">
    <path clip-path="url(#pb0a4976f4a)" d="M 92.290909 324.811513 
L 92.290909 384.761182 
" style="fill:none;stroke:#ff0000;stroke-dasharray:7.4,3.2;stroke-dashoffset:0;stroke-opacity:0.5;stroke-width:2;"/>
   </g>
   <g id="line2d_36">
    <path clip-path="url(#pb0a4976f4a)" d="M 106.284639 322.801734 
L 92.290909 384.761182 
" style="fill:none;stroke:#ff0000;stroke-dasharray:7.4,3.2;stroke-dashoffset:0;stroke-opacity:0.5;stroke-width:2;"/>
   </g>
   <g id="line2d_37">
    <path clip-path="url(#pb0a4976f4a)" d="M 120.27837 320.907622 
L 106.284639 379.72764 
" style="fill:none;stroke:#ff0000;stroke-dasharray:7.4,3.2;stroke-dashoffset:0;stroke-opacity:0.5;stroke-width:2;"/>
   </g>
   <g id="line2d_38">
    <path clip-path="url(#pb0a4976f4a)" d="M 134.2721 319.180237 
L 106.284639 379.72764 
" style="fill:none;stroke:#ff0000;stroke-dasharray:7.4,3.2;stroke-dashoffset:0;stroke-opacity:0.5;stroke-width:2;"/>
   </g>
   <g id="line2d_39">
    <path clip-path="url(#pb0a4976f4a)" d="M 148.265831 317.680197 
L 120.27837 376.530325 
" style="fill:none;stroke:#ff0000;stroke-dasharray:7.4,3.2;stroke-dashoffset:0;stroke-opacity:0.5;stroke-width:2;"/>
   </g>
   <g id="line2d_40">
    <path clip-path="url(#pb0a4976f4a)" d="M 162.259561 316.478636 
L 120.27837 376.530325 
" style="fill:none;stroke:#ff0000;stroke-dasharray:7.4,3.2;stroke-dashoffset:0;stroke-opacity:0.5;stroke-width:2;"/>
   </g>
   <g id="line2d_41">
    <path clip-path="url(#pb0a4976f4a)" d="M 176.253292 315.657978 
L 134.2721 375.27506 
" style="fill:none;stroke:#ff0000;stroke-dasharray:7.4,3.2;stroke-dashoffset:0;stroke-opacity:0.5;stroke-width:2;"/>
   </g>
   <g id="line2d_42">
    <path clip-path="url(#pb0a4976f4a)" d="M 190.247022 315.312397 
L 134.2721 375.27506 
" style="fill:none;stroke:#ff0000;stroke-dasharray:7.4,3.2;stroke-dashoffset:0;stroke-opacity:0.5;stroke-width:2;"/>
   </g>
   <g id="line2d_43">
    <path clip-path="url(#pb0a4976f4a)" d="M 204.240752 315.547736 
L 134.2721 375.27506 
" style="fill:none;stroke:#ff0000;stroke-dasharray:7.4,3.2;stroke-dashoffset:0;stroke-opacity:0.5;stroke-width:2;"/>
   </g>
   <g id="line2d_44">
    <path clip-path="url(#pb0a4976f4a)" d="M 218.234483 316.480644 
L 148.265831 376.003391 
" style="fill:none;stroke:#ff0000;stroke-dasharray:7.4,3.2;stroke-dashoffset:0;stroke-opacity:0.5;stroke-width:2;"/>
   </g>
   <g id="line2d_45">
    <path clip-path="url(#pb0a4976f4a)" d="M 232.228213 318.236537 
L 162.259561 378.691212 
" style="fill:none;stroke:#ff0000;stroke-dasharray:7.4,3.2;stroke-dashoffset:0;stroke-opacity:0.5;stroke-width:2;"/>
   </g>
   <g id="line2d_46">
    <path clip-path="url(#pb0a4976f4a)" d="M 246.221944 320.945981 
L 162.259561 378.691212 
" style="fill:none;stroke:#ff0000;stroke-dasharray:7.4,3.2;stroke-dashoffset:0;stroke-opacity:0.5;stroke-width:2;"/>
   </g>
   <g id="line2d_47">
    <path clip-path="url(#pb0a4976f4a)" d="M 260.215674 324.738916 
L 176.253292 383.249563 
" style="fill:none;stroke:#ff0000;stroke-dasharray:7.4,3.2;stroke-dashoffset:0;stroke-opacity:0.5;stroke-width:2;"/>
   </g>
   <g id="line2d_48">
    <path clip-path="url(#pb0a4976f4a)" d="M 274.209404 329.736126 
L 190.247022 389.527574 
" style="fill:none;stroke:#ff0000;stroke-dasharray:7.4,3.2;stroke-dashoffset:0;stroke-opacity:0.5;stroke-width:2;"/>
   </g>
   <g id="line2d_49">
    <path clip-path="url(#pb0a4976f4a)" d="M 288.203135 336.037276 
L 204.240752 397.317459 
" style="fill:none;stroke:#ff0000;stroke-dasharray:7.4,3.2;stroke-dashoffset:0;stroke-opacity:0.5;stroke-width:2;"/>
   </g>
   <g id="line2d_50">
    <path clip-path="url(#pb0a4976f4a)" d="M 302.196865 343.70487 
L 218.234483 406.361394 
" style="fill:none;stroke:#ff0000;stroke-dasharray:7.4,3.2;stroke-dashoffset:0;stroke-opacity:0.5;stroke-width:2;"/>
   </g>
   <g id="line2d_51">
    <path clip-path="url(#pb0a4976f4a)" d="M 316.190596 352.743657 
L 232.228213 416.360046 
" style="fill:none;stroke:#ff0000;stroke-dasharray:7.4,3.2;stroke-dashoffset:0;stroke-opacity:0.5;stroke-width:2;"/>
   </g>
   <g id="line2d_52">
    <path clip-path="url(#pb0a4976f4a)" d="M 330.184326 363.075401 
L 246.221944 426.982488 
" style="fill:none;stroke:#ff0000;stroke-dasharray:7.4,3.2;stroke-dashoffset:0;stroke-opacity:0.5;stroke-width:2;"/>
   </g>
   <g id="line2d_53">
    <path clip-path="url(#pb0a4976f4a)" d="M 344.178056 374.509608 
L 260.215674 437.877142 
" style="fill:none;stroke:#ff0000;stroke-dasharray:7.4,3.2;stroke-dashoffset:0;stroke-opacity:0.5;stroke-width:2;"/>
   </g>
   <g id="line2d_54">
    <path clip-path="url(#pb0a4976f4a)" d="M 358.171787 386.712029 
L 274.209404 448.683425 
" style="fill:none;stroke:#ff0000;stroke-dasharray:7.4,3.2;stroke-dashoffset:0;stroke-opacity:0.5;stroke-width:2;"/>
   </g>
   <g id="line2d_55">
    <path clip-path="url(#pb0a4976f4a)" d="M 372.165517 399.174476 
L 288.203135 459.043675 
" style="fill:none;stroke:#ff0000;stroke-dasharray:7.4,3.2;stroke-dashoffset:0;stroke-opacity:0.5;stroke-width:2;"/>
   </g>
   <g id="line2d_56">
    <path clip-path="url(#pb0a4976f4a)" d="M 386.159248 411.191968 
L 302.196865 468.614996 
" style="fill:none;stroke:#ff0000;stroke-dasharray:7.4,3.2;stroke-dashoffset:0;stroke-opacity:0.5;stroke-width:2;"/>
   </g>
   <g id="line2d_57">
    <path clip-path="url(#pb0a4976f4a)" d="M 400.152978 421.856313 
L 316.190596 477.080601 
" style="fill:none;stroke:#ff0000;stroke-dasharray:7.4,3.2;stroke-dashoffset:0;stroke-opacity:0.5;stroke-width:2;"/>
   </g>
   <g id="line2d_58">
    <path clip-path="url(#pb0a4976f4a)" d="M 400.152978 421.856313 
L 330.184326 484.160301 
" style="fill:none;stroke:#ff0000;stroke-dasharray:7.4,3.2;stroke-dashoffset:0;stroke-opacity:0.5;stroke-width:2;"/>
   </g>
   <g id="line2d_59">
    <path clip-path="url(#pb0a4976f4a)" d="M 414.146708 430.0787 
L 344.178056 489.619775 
" style="fill:none;stroke:#ff0000;stroke-dasharray:7.4,3.2;stroke-dashoffset:0;stroke-opacity:0.5;stroke-width:2;"/>
   </g>
   <g id="line2d_60">
    <path clip-path="url(#pb0a4976f4a)" d="M 428.140439 434.656925 
L 358.171787 493.27833 
" style="fill:none;stroke:#ff0000;stroke-dasharray:7.4,3.2;stroke-dashoffset:0;stroke-opacity:0.5;stroke-width:2;"/>
   </g>
   <g id="line2d_61">
    <path clip-path="url(#pb0a4976f4a)" d="M 428.140439 434.656925 
L 372.165517 495.014876 
" style="fill:none;stroke:#ff0000;stroke-dasharray:7.4,3.2;stroke-dashoffset:0;stroke-opacity:0.5;stroke-width:2;"/>
   </g>
   <g id="line2d_62">
    <path clip-path="url(#pb0a4976f4a)" d="M 428.140439 434.656925 
L 386.159248 494.771938 
" style="fill:none;stroke:#ff0000;stroke-dasharray:7.4,3.2;stroke-dashoffset:0;stroke-opacity:0.5;stroke-width:2;"/>
   </g>
   <g id="line2d_63">
    <path clip-path="url(#pb0a4976f4a)" d="M 442.134169 434.404036 
L 400.152978 492.557558 
" style="fill:none;stroke:#ff0000;stroke-dasharray:7.4,3.2;stroke-dashoffset:0;stroke-opacity:0.5;stroke-width:2;"/>
   </g>
   <g id="line2d_64">
    <path clip-path="url(#pb0a4976f4a)" d="M 456.1279 428.352023 
L 414.146708 488.445024 
" style="fill:none;stroke:#ff0000;stroke-dasharray:7.4,3.2;stroke-dashoffset:0;stroke-opacity:0.5;stroke-width:2;"/>
   </g>
   <g id="line2d_65">
    <path clip-path="url(#pb0a4976f4a)" d="M 456.1279 428.352023 
L 428.140439 482.570452 
" style="fill:none;stroke:#ff0000;stroke-dasharray:7.4,3.2;stroke-dashoffset:0;stroke-opacity:0.5;stroke-width:2;"/>
   </g>
   <g id="line2d_66">
    <path clip-path="url(#pb0a4976f4a)" d="M 470.12163 416.03317 
L 442.134169 475.128274 
" style="fill:none;stroke:#ff0000;stroke-dasharray:7.4,3.2;stroke-dashoffset:0;stroke-opacity:0.5;stroke-width:2;"/>
   </g>
   <g id="line2d_67">
    <path clip-path="url(#pb0a4976f4a)" d="M 484.115361 397.81883 
L 456.1279 466.364808 
" style="fill:none;stroke:#ff0000;stroke-dasharray:7.4,3.2;stroke-dashoffset:0;stroke-opacity:0.5;stroke-width:2;"/>
   </g>
   <g id="line2d_68">
    <path clip-path="url(#pb0a4976f4a)" d="M 484.115361 397.81883 
L 470.12163 456.570102 
" style="fill:none;stroke:#ff0000;stroke-dasharray:7.4,3.2;stroke-dashoffset:0;stroke-opacity:0.5;stroke-width:2;"/>
   </g>
   <g id="line2d_69">
    <path clip-path="url(#pb0a4976f4a)" d="M 498.109091 375.25742 
L 484.115361 446.068335 
" style="fill:none;stroke:#ff0000;stroke-dasharray:7.4,3.2;stroke-dashoffset:0;stroke-opacity:0.5;stroke-width:2;"/>
   </g>
   <g id="line2d_70">
    <path clip-path="url(#pb0a4976f4a)" d="M 498.109091 375.25742 
L 498.109091 435.207089 
" style="fill:none;stroke:#ff0000;stroke-dasharray:7.4,3.2;stroke-dashoffset:0;stroke-opacity:0.5;stroke-width:2;"/>
   </g>
   <g id="patch_8">
    <path d="M 72 504 
L 72 306.327273 
" style="fill:none;stroke:#000000;stroke-linecap:square;stroke-linejoin:miter;stroke-width:0.8;"/>
   </g>
   <g id="patch_9">
    <path d="M 518.4 504 
L 518.4 306.327273 
" style="fill:none;stroke:#000000;stroke-linecap:square;stroke-linejoin:miter;stroke-width:0.8;"/>
   </g>
   <g id="patch_10">
    <path d="M 72 504 
L 518.4 504 
" style="fill:none;stroke:#000000;stroke-linecap:square;stroke-linejoin:miter;stroke-width:0.8;"/>
   </g>
   <g id="patch_11">
    <path d="M 72 306.327273 
L 518.4 306.327273 
" style="fill:none;stroke:#000000;stroke-linecap:square;stroke-linejoin:miter;stroke-width:0.8;"/>
   </g>
   <g id="text_2">
    <!-- Dynamic Time Warping -->
    <g transform="translate(208.030078 300.327273)scale(0.15 -0.15)">
     <defs>
      <path d="M 19.671875 64.796875 
L 19.671875 8.109375 
L 31.59375 8.109375 
Q 46.6875 8.109375 53.6875 14.9375 
Q 60.6875 21.78125 60.6875 36.53125 
Q 60.6875 51.171875 53.6875 57.984375 
Q 46.6875 64.796875 31.59375 64.796875 
z
M 9.8125 72.90625 
L 30.078125 72.90625 
Q 51.265625 72.90625 61.171875 64.09375 
Q 71.09375 55.28125 71.09375 36.53125 
Q 71.09375 17.671875 61.125 8.828125 
Q 51.171875 0 30.078125 0 
L 9.8125 0 
z
" id="DejaVuSans-68"/>
      <path d="M 32.171875 -5.078125 
Q 28.375 -14.84375 24.75 -17.8125 
Q 21.140625 -20.796875 15.09375 -20.796875 
L 7.90625 -20.796875 
L 7.90625 -13.28125 
L 13.1875 -13.28125 
Q 16.890625 -13.28125 18.9375 -11.515625 
Q 21 -9.765625 23.484375 -3.21875 
L 25.09375 0.875 
L 2.984375 54.6875 
L 12.5 54.6875 
L 29.59375 11.921875 
L 46.6875 54.6875 
L 56.203125 54.6875 
z
" id="DejaVuSans-121"/>
      <path d="M 52 44.1875 
Q 55.375 50.25 60.0625 53.125 
Q 64.75 56 71.09375 56 
Q 79.640625 56 84.28125 50.015625 
Q 88.921875 44.046875 88.921875 33.015625 
L 88.921875 0 
L 79.890625 0 
L 79.890625 32.71875 
Q 79.890625 40.578125 77.09375 44.375 
Q 74.3125 48.1875 68.609375 48.1875 
Q 61.625 48.1875 57.5625 43.546875 
Q 53.515625 38.921875 53.515625 30.90625 
L 53.515625 0 
L 44.484375 0 
L 44.484375 32.71875 
Q 44.484375 40.625 41.703125 44.40625 
Q 38.921875 48.1875 33.109375 48.1875 
Q 26.21875 48.1875 22.15625 43.53125 
Q 18.109375 38.875 18.109375 30.90625 
L 18.109375 0 
L 9.078125 0 
L 9.078125 54.6875 
L 18.109375 54.6875 
L 18.109375 46.1875 
Q 21.1875 51.21875 25.484375 53.609375 
Q 29.78125 56 35.6875 56 
Q 41.65625 56 45.828125 52.96875 
Q 50 49.953125 52 44.1875 
z
" id="DejaVuSans-109"/>
      <path d="M -0.296875 72.90625 
L 61.375 72.90625 
L 61.375 64.59375 
L 35.5 64.59375 
L 35.5 0 
L 25.59375 0 
L 25.59375 64.59375 
L -0.296875 64.59375 
z
" id="DejaVuSans-84"/>
      <path d="M 3.328125 72.90625 
L 13.28125 72.90625 
L 28.609375 11.28125 
L 43.890625 72.90625 
L 54.984375 72.90625 
L 70.3125 11.28125 
L 85.59375 72.90625 
L 95.609375 72.90625 
L 77.296875 0 
L 64.890625 0 
L 49.515625 63.28125 
L 33.984375 0 
L 21.578125 0 
z
" id="DejaVuSans-87"/>
      <path d="M 41.109375 46.296875 
Q 39.59375 47.171875 37.8125 47.578125 
Q 36.03125 48 33.890625 48 
Q 26.265625 48 22.1875 43.046875 
Q 18.109375 38.09375 18.109375 28.8125 
L 18.109375 0 
L 9.078125 0 
L 9.078125 54.6875 
L 18.109375 54.6875 
L 18.109375 46.1875 
Q 20.953125 51.171875 25.484375 53.578125 
Q 30.03125 56 36.53125 56 
Q 37.453125 56 38.578125 55.875 
Q 39.703125 55.765625 41.0625 55.515625 
z
" id="DejaVuSans-114"/>
      <path d="M 18.109375 8.203125 
L 18.109375 -20.796875 
L 9.078125 -20.796875 
L 9.078125 54.6875 
L 18.109375 54.6875 
L 18.109375 46.390625 
Q 20.953125 51.265625 25.265625 53.625 
Q 29.59375 56 35.59375 56 
Q 45.5625 56 51.78125 48.09375 
Q 58.015625 40.1875 58.015625 27.296875 
Q 58.015625 14.40625 51.78125 6.484375 
Q 45.5625 -1.421875 35.59375 -1.421875 
Q 29.59375 -1.421875 25.265625 0.953125 
Q 20.953125 3.328125 18.109375 8.203125 
z
M 48.6875 27.296875 
Q 48.6875 37.203125 44.609375 42.84375 
Q 40.53125 48.484375 33.40625 48.484375 
Q 26.265625 48.484375 22.1875 42.84375 
Q 18.109375 37.203125 18.109375 27.296875 
Q 18.109375 17.390625 22.1875 11.75 
Q 26.265625 6.109375 33.40625 6.109375 
Q 40.53125 6.109375 44.609375 11.75 
Q 48.6875 17.390625 48.6875 27.296875 
z
" id="DejaVuSans-112"/>
      <path d="M 45.40625 27.984375 
Q 45.40625 37.75 41.375 43.109375 
Q 37.359375 48.484375 30.078125 48.484375 
Q 22.859375 48.484375 18.828125 43.109375 
Q 14.796875 37.75 14.796875 27.984375 
Q 14.796875 18.265625 18.828125 12.890625 
Q 22.859375 7.515625 30.078125 7.515625 
Q 37.359375 7.515625 41.375 12.890625 
Q 45.40625 18.265625 45.40625 27.984375 
z
M 54.390625 6.78125 
Q 54.390625 -7.171875 48.1875 -13.984375 
Q 42 -20.796875 29.203125 -20.796875 
Q 24.46875 -20.796875 20.265625 -20.09375 
Q 16.0625 -19.390625 12.109375 -17.921875 
L 12.109375 -9.1875 
Q 16.0625 -11.328125 19.921875 -12.34375 
Q 23.78125 -13.375 27.78125 -13.375 
Q 36.625 -13.375 41.015625 -8.765625 
Q 45.40625 -4.15625 45.40625 5.171875 
L 45.40625 9.625 
Q 42.625 4.78125 38.28125 2.390625 
Q 33.9375 0 27.875 0 
Q 17.828125 0 11.671875 7.65625 
Q 5.515625 15.328125 5.515625 27.984375 
Q 5.515625 40.671875 11.671875 48.328125 
Q 17.828125 56 27.875 56 
Q 33.9375 56 38.28125 53.609375 
Q 42.625 51.21875 45.40625 46.390625 
L 45.40625 54.6875 
L 54.390625 54.6875 
z
" id="DejaVuSans-103"/>
     </defs>
     <use xlink:href="#DejaVuSans-68"/>
     <use x="77.001953" xlink:href="#DejaVuSans-121"/>
     <use x="136.181641" xlink:href="#DejaVuSans-110"/>
     <use x="199.560547" xlink:href="#DejaVuSans-97"/>
     <use x="260.839844" xlink:href="#DejaVuSans-109"/>
     <use x="358.251953" xlink:href="#DejaVuSans-105"/>
     <use x="386.035156" xlink:href="#DejaVuSans-99"/>
     <use x="441.015625" xlink:href="#DejaVuSans-32"/>
     <use x="472.802734" xlink:href="#DejaVuSans-84"/>
     <use x="530.761719" xlink:href="#DejaVuSans-105"/>
     <use x="558.544922" xlink:href="#DejaVuSans-109"/>
     <use x="655.957031" xlink:href="#DejaVuSans-101"/>
     <use x="717.480469" xlink:href="#DejaVuSans-32"/>
     <use x="749.267578" xlink:href="#DejaVuSans-87"/>
     <use x="841.769531" xlink:href="#DejaVuSans-97"/>
     <use x="903.048828" xlink:href="#DejaVuSans-114"/>
     <use x="944.162109" xlink:href="#DejaVuSans-112"/>
     <use x="1007.638672" xlink:href="#DejaVuSans-105"/>
     <use x="1035.421875" xlink:href="#DejaVuSans-110"/>
     <use x="1098.800781" xlink:href="#DejaVuSans-103"/>
    </g>
   </g>
  </g>
 </g>
 <defs>
  <clipPath id="p85557acb89">
   <rect height="197.672727" width="446.4" x="72" y="69.12"/>
  </clipPath>
  <clipPath id="pb0a4976f4a">
   <rect height="197.672727" width="446.4" x="72" y="306.327273"/>
  </clipPath>
 </defs>
</svg>
