<?xml version="1.0" encoding="utf-8" standalone="no"?>
<!DOCTYPE svg PUBLIC "-//W3C//DTD SVG 1.1//EN"
  "http://www.w3.org/Graphics/SVG/1.1/DTD/svg11.dtd">
<!-- Created with matplotlib (https://matplotlib.org/) -->
<svg height="720pt" version="1.1" viewBox="0 0 720 720" width="720pt" xmlns="http://www.w3.org/2000/svg" xmlns:xlink="http://www.w3.org/1999/xlink">
 <metadata>
  <rdf:RDF xmlns:cc="http://creativecommons.org/ns#" xmlns:dc="http://purl.org/dc/elements/1.1/" xmlns:rdf="http://www.w3.org/1999/02/22-rdf-syntax-ns#">
   <cc:Work>
    <dc:type rdf:resource="http://purl.org/dc/dcmitype/StillImage"/>
    <dc:date>1980-01-01T00:00:00+00:00</dc:date>
    <dc:format>image/svg+xml</dc:format>
    <dc:creator>
     <cc:Agent>
      <dc:title>Matplotlib v3.3.3, https://matplotlib.org/</dc:title>
     </cc:Agent>
    </dc:creator>
   </cc:Work>
  </rdf:RDF>
 </metadata>
 <defs>
  <style type="text/css">*{stroke-linecap:butt;stroke-linejoin:round;}</style>
 </defs>
 <g id="figure_1">
  <g id="patch_1">
   <path d="M 0 720 
L 720 720 
L 720 0 
L 0 0 
z
" style="fill:none;"/>
  </g>
  <g id="axes_1">
   <g id="patch_2">
    <path d="M 19.7 700.3 
L 703.8 700.3 
L 703.8 56.4 
L 19.7 56.4 
z
" style="fill:#ffffff;"/>
   </g>
   <g id="PathCollection_1">
    <defs>
     <path d="M 0 3.5 
C 0.928211 3.5 1.81853 3.131218 2.474874 2.474874 
C 3.131218 1.81853 3.5 0.928211 3.5 0 
C 3.5 -0.928211 3.131218 -1.81853 2.474874 -2.474874 
C 1.81853 -3.131218 0.928211 -3.5 0 -3.5 
C -0.928211 -3.5 -1.81853 -3.131218 -2.474874 -2.474874 
C -3.131218 -1.81853 -3.5 -0.928211 -3.5 0 
C -3.5 0.928211 -3.131218 1.81853 -2.474874 2.474874 
C -1.81853 3.131218 -0.928211 3.5 0 3.5 
z
" id="m488ea021c1" style="stroke:#1f77b4;stroke-width:0.3;"/>
    </defs>
    <g clip-path="url(#p6e77cccd5a)">
     <use style="fill:#1f77b4;stroke:#1f77b4;stroke-width:0.3;" x="253.396703" xlink:href="#m488ea021c1" y="397.795114"/>
     <use style="fill:#1f77b4;stroke:#1f77b4;stroke-width:0.3;" x="518.098712" xlink:href="#m488ea021c1" y="671.031818"/>
     <use style="fill:#1f77b4;stroke:#1f77b4;stroke-width:0.3;" x="329.681926" xlink:href="#m488ea021c1" y="584.172957"/>
     <use style="fill:#1f77b4;stroke:#1f77b4;stroke-width:0.3;" x="640.086924" xlink:href="#m488ea021c1" y="575.307087"/>
     <use style="fill:#1f77b4;stroke:#1f77b4;stroke-width:0.3;" x="149.985599" xlink:href="#m488ea021c1" y="437.444249"/>
     <use style="fill:#1f77b4;stroke:#1f77b4;stroke-width:0.3;" x="663.75227" xlink:href="#m488ea021c1" y="497.263135"/>
     <use style="fill:#1f77b4;stroke:#1f77b4;stroke-width:0.3;" x="285.00004" xlink:href="#m488ea021c1" y="523.932322"/>
     <use style="fill:#1f77b4;stroke:#1f77b4;stroke-width:0.3;" x="258.971701" xlink:href="#m488ea021c1" y="496.875703"/>
     <use style="fill:#1f77b4;stroke:#1f77b4;stroke-width:0.3;" x="358.079432" xlink:href="#m488ea021c1" y="629.405189"/>
     <use style="fill:#1f77b4;stroke:#1f77b4;stroke-width:0.3;" x="132.913912" xlink:href="#m488ea021c1" y="484.238424"/>
     <use style="fill:#1f77b4;stroke:#1f77b4;stroke-width:0.3;" x="285.685331" xlink:href="#m488ea021c1" y="395.69463"/>
     <use style="fill:#1f77b4;stroke:#1f77b4;stroke-width:0.3;" x="453.490388" xlink:href="#m488ea021c1" y="481.308444"/>
     <use style="fill:#1f77b4;stroke:#1f77b4;stroke-width:0.3;" x="497.776571" xlink:href="#m488ea021c1" y="660.356645"/>
     <use style="fill:#1f77b4;stroke:#1f77b4;stroke-width:0.3;" x="378.522279" xlink:href="#m488ea021c1" y="416.58907"/>
     <use style="fill:#1f77b4;stroke:#1f77b4;stroke-width:0.3;" x="450.869099" xlink:href="#m488ea021c1" y="518.358936"/>
     <use style="fill:#1f77b4;stroke:#1f77b4;stroke-width:0.3;" x="399.65752" xlink:href="#m488ea021c1" y="461.965418"/>
     <use style="fill:#1f77b4;stroke:#1f77b4;stroke-width:0.3;" x="578.5716" xlink:href="#m488ea021c1" y="653.941891"/>
     <use style="fill:#1f77b4;stroke:#1f77b4;stroke-width:0.3;" x="659.578652" xlink:href="#m488ea021c1" y="545.376809"/>
     <use style="fill:#1f77b4;stroke:#1f77b4;stroke-width:0.3;" x="665.193215" xlink:href="#m488ea021c1" y="529.19179"/>
     <use style="fill:#1f77b4;stroke:#1f77b4;stroke-width:0.3;" x="196.914492" xlink:href="#m488ea021c1" y="410.867114"/>
     <use style="fill:#1f77b4;stroke:#1f77b4;stroke-width:0.3;" x="369.037839" xlink:href="#m488ea021c1" y="420.116596"/>
     <use style="fill:#1f77b4;stroke:#1f77b4;stroke-width:0.3;" x="192.044806" xlink:href="#m488ea021c1" y="404.638501"/>
     <use style="fill:#1f77b4;stroke:#1f77b4;stroke-width:0.3;" x="89.85625" xlink:href="#m488ea021c1" y="594.135397"/>
     <use style="fill:#1f77b4;stroke:#1f77b4;stroke-width:0.3;" x="403.618769" xlink:href="#m488ea021c1" y="656.971829"/>
     <use style="fill:#1f77b4;stroke:#1f77b4;stroke-width:0.3;" x="341.79679" xlink:href="#m488ea021c1" y="609.873027"/>
     <use style="fill:#1f77b4;stroke:#1f77b4;stroke-width:0.3;" x="467.384802" xlink:href="#m488ea021c1" y="586.453708"/>
     <use style="fill:#1f77b4;stroke:#1f77b4;stroke-width:0.3;" x="628.050745" xlink:href="#m488ea021c1" y="607.448689"/>
     <use style="fill:#1f77b4;stroke:#1f77b4;stroke-width:0.3;" x="288.290742" xlink:href="#m488ea021c1" y="535.685883"/>
     <use style="fill:#1f77b4;stroke:#1f77b4;stroke-width:0.3;" x="403.232611" xlink:href="#m488ea021c1" y="655.023867"/>
     <use style="fill:#1f77b4;stroke:#1f77b4;stroke-width:0.3;" x="427.109034" xlink:href="#m488ea021c1" y="463.575828"/>
     <use style="fill:#1f77b4;stroke:#1f77b4;stroke-width:0.3;" x="314.784511" xlink:href="#m488ea021c1" y="557.833331"/>
     <use style="fill:#1f77b4;stroke:#1f77b4;stroke-width:0.3;" x="321.419555" xlink:href="#m488ea021c1" y="389.962281"/>
     <use style="fill:#1f77b4;stroke:#1f77b4;stroke-width:0.3;" x="452.407681" xlink:href="#m488ea021c1" y="660.386371"/>
     <use style="fill:#1f77b4;stroke:#1f77b4;stroke-width:0.3;" x="467.368021" xlink:href="#m488ea021c1" y="557.76814"/>
     <use style="fill:#1f77b4;stroke:#1f77b4;stroke-width:0.3;" x="85.786092" xlink:href="#m488ea021c1" y="510.872563"/>
     <use style="fill:#1f77b4;stroke:#1f77b4;stroke-width:0.3;" x="477.7171" xlink:href="#m488ea021c1" y="533.341402"/>
     <use style="fill:#1f77b4;stroke:#1f77b4;stroke-width:0.3;" x="605.177988" xlink:href="#m488ea021c1" y="619.890229"/>
     <use style="fill:#1f77b4;stroke:#1f77b4;stroke-width:0.3;" x="431.615363" xlink:href="#m488ea021c1" y="666.254775"/>
     <use style="fill:#1f77b4;stroke:#1f77b4;stroke-width:0.3;" x="95.340971" xlink:href="#m488ea021c1" y="566.864497"/>
     <use style="fill:#1f77b4;stroke:#1f77b4;stroke-width:0.3;" x="541.045675" xlink:href="#m488ea021c1" y="660.861381"/>
     <use style="fill:#1f77b4;stroke:#1f77b4;stroke-width:0.3;" x="317.845001" xlink:href="#m488ea021c1" y="375.250011"/>
     <use style="fill:#1f77b4;stroke:#1f77b4;stroke-width:0.3;" x="81.356861" xlink:href="#m488ea021c1" y="523.062081"/>
     <use style="fill:#1f77b4;stroke:#1f77b4;stroke-width:0.3;" x="135.962499" xlink:href="#m488ea021c1" y="454.168525"/>
     <use style="fill:#1f77b4;stroke:#1f77b4;stroke-width:0.3;" x="672.704545" xlink:href="#m488ea021c1" y="500.665588"/>
     <use style="fill:#1f77b4;stroke:#1f77b4;stroke-width:0.3;" x="105.038932" xlink:href="#m488ea021c1" y="488.672701"/>
     <use style="fill:#1f77b4;stroke:#1f77b4;stroke-width:0.3;" x="390.529151" xlink:href="#m488ea021c1" y="441.223321"/>
     <use style="fill:#1f77b4;stroke:#1f77b4;stroke-width:0.3;" x="604.14426" xlink:href="#m488ea021c1" y="623.182368"/>
     <use style="fill:#1f77b4;stroke:#1f77b4;stroke-width:0.3;" x="225.469466" xlink:href="#m488ea021c1" y="402.926219"/>
     <use style="fill:#1f77b4;stroke:#1f77b4;stroke-width:0.3;" x="307.06327" xlink:href="#m488ea021c1" y="570.331963"/>
     <use style="fill:#1f77b4;stroke:#1f77b4;stroke-width:0.3;" x="503.696272" xlink:href="#m488ea021c1" y="650.533331"/>
     <use style="fill:#1f77b4;stroke:#1f77b4;stroke-width:0.3;" x="528.367556" xlink:href="#m488ea021c1" y="283.288454"/>
     <use style="fill:#1f77b4;stroke:#1f77b4;stroke-width:0.3;" x="474.414667" xlink:href="#m488ea021c1" y="259.248198"/>
     <use style="fill:#1f77b4;stroke:#1f77b4;stroke-width:0.3;" x="127.131078" xlink:href="#m488ea021c1" y="255.828187"/>
     <use style="fill:#1f77b4;stroke:#1f77b4;stroke-width:0.3;" x="380.681562" xlink:href="#m488ea021c1" y="306.685978"/>
     <use style="fill:#1f77b4;stroke:#1f77b4;stroke-width:0.3;" x="69.721968" xlink:href="#m488ea021c1" y="197.953323"/>
     <use style="fill:#1f77b4;stroke:#1f77b4;stroke-width:0.3;" x="80.685034" xlink:href="#m488ea021c1" y="198.595674"/>
     <use style="fill:#1f77b4;stroke:#1f77b4;stroke-width:0.3;" x="104.807717" xlink:href="#m488ea021c1" y="206.105272"/>
     <use style="fill:#1f77b4;stroke:#1f77b4;stroke-width:0.3;" x="120.191727" xlink:href="#m488ea021c1" y="118.725272"/>
     <use style="fill:#1f77b4;stroke:#1f77b4;stroke-width:0.3;" x="127.408652" xlink:href="#m488ea021c1" y="103.367712"/>
     <use style="fill:#1f77b4;stroke:#1f77b4;stroke-width:0.3;" x="506.963309" xlink:href="#m488ea021c1" y="333.58421"/>
     <use style="fill:#1f77b4;stroke:#1f77b4;stroke-width:0.3;" x="456.80868" xlink:href="#m488ea021c1" y="244.943214"/>
     <use style="fill:#1f77b4;stroke:#1f77b4;stroke-width:0.3;" x="194.915033" xlink:href="#m488ea021c1" y="164.412034"/>
     <use style="fill:#1f77b4;stroke:#1f77b4;stroke-width:0.3;" x="362.094014" xlink:href="#m488ea021c1" y="280.208402"/>
     <use style="fill:#1f77b4;stroke:#1f77b4;stroke-width:0.3;" x="445.30363" xlink:href="#m488ea021c1" y="305.139549"/>
     <use style="fill:#1f77b4;stroke:#1f77b4;stroke-width:0.3;" x="182.815826" xlink:href="#m488ea021c1" y="160.446301"/>
     <use style="fill:#1f77b4;stroke:#1f77b4;stroke-width:0.3;" x="496.881738" xlink:href="#m488ea021c1" y="186.656849"/>
     <use style="fill:#1f77b4;stroke:#1f77b4;stroke-width:0.3;" x="411.394201" xlink:href="#m488ea021c1" y="302.271259"/>
     <use style="fill:#1f77b4;stroke:#1f77b4;stroke-width:0.3;" x="131.883409" xlink:href="#m488ea021c1" y="157.497728"/>
     <use style="fill:#1f77b4;stroke:#1f77b4;stroke-width:0.3;" x="99.017516" xlink:href="#m488ea021c1" y="179.749202"/>
     <use style="fill:#1f77b4;stroke:#1f77b4;stroke-width:0.3;" x="491.360616" xlink:href="#m488ea021c1" y="265.645205"/>
     <use style="fill:#1f77b4;stroke:#1f77b4;stroke-width:0.3;" x="159.048305" xlink:href="#m488ea021c1" y="142.573303"/>
     <use style="fill:#1f77b4;stroke:#1f77b4;stroke-width:0.3;" x="177.314246" xlink:href="#m488ea021c1" y="139.739967"/>
     <use style="fill:#1f77b4;stroke:#1f77b4;stroke-width:0.3;" x="425.039201" xlink:href="#m488ea021c1" y="322.027678"/>
     <use style="fill:#1f77b4;stroke:#1f77b4;stroke-width:0.3;" x="50.795455" xlink:href="#m488ea021c1" y="161.97472"/>
     <use style="fill:#1f77b4;stroke:#1f77b4;stroke-width:0.3;" x="504.495892" xlink:href="#m488ea021c1" y="356.816392"/>
     <use style="fill:#1f77b4;stroke:#1f77b4;stroke-width:0.3;" x="540.388035" xlink:href="#m488ea021c1" y="301.530221"/>
     <use style="fill:#1f77b4;stroke:#1f77b4;stroke-width:0.3;" x="442.500099" xlink:href="#m488ea021c1" y="345.280421"/>
     <use style="fill:#1f77b4;stroke:#1f77b4;stroke-width:0.3;" x="504.537108" xlink:href="#m488ea021c1" y="283.904996"/>
     <use style="fill:#1f77b4;stroke:#1f77b4;stroke-width:0.3;" x="505.864832" xlink:href="#m488ea021c1" y="128.057712"/>
     <use style="fill:#1f77b4;stroke:#1f77b4;stroke-width:0.3;" x="410.767333" xlink:href="#m488ea021c1" y="235.035238"/>
     <use style="fill:#1f77b4;stroke:#1f77b4;stroke-width:0.3;" x="490.361929" xlink:href="#m488ea021c1" y="265.249806"/>
     <use style="fill:#1f77b4;stroke:#1f77b4;stroke-width:0.3;" x="410.207119" xlink:href="#m488ea021c1" y="269.114864"/>
     <use style="fill:#1f77b4;stroke:#1f77b4;stroke-width:0.3;" x="141.431175" xlink:href="#m488ea021c1" y="168.130622"/>
     <use style="fill:#1f77b4;stroke:#1f77b4;stroke-width:0.3;" x="175.682197" xlink:href="#m488ea021c1" y="85.668182"/>
     <use style="fill:#1f77b4;stroke:#1f77b4;stroke-width:0.3;" x="464.389081" xlink:href="#m488ea021c1" y="289.679859"/>
     <use style="fill:#1f77b4;stroke:#1f77b4;stroke-width:0.3;" x="519.318656" xlink:href="#m488ea021c1" y="269.317682"/>
     <use style="fill:#1f77b4;stroke:#1f77b4;stroke-width:0.3;" x="96.95619" xlink:href="#m488ea021c1" y="159.704151"/>
     <use style="fill:#1f77b4;stroke:#1f77b4;stroke-width:0.3;" x="541.423604" xlink:href="#m488ea021c1" y="214.39383"/>
     <use style="fill:#1f77b4;stroke:#1f77b4;stroke-width:0.3;" x="428.234029" xlink:href="#m488ea021c1" y="217.460537"/>
     <use style="fill:#1f77b4;stroke:#1f77b4;stroke-width:0.3;" x="144.109118" xlink:href="#m488ea021c1" y="233.384014"/>
     <use style="fill:#1f77b4;stroke:#1f77b4;stroke-width:0.3;" x="161.700889" xlink:href="#m488ea021c1" y="174.930575"/>
     <use style="fill:#1f77b4;stroke:#1f77b4;stroke-width:0.3;" x="127.108127" xlink:href="#m488ea021c1" y="139.213438"/>
     <use style="fill:#1f77b4;stroke:#1f77b4;stroke-width:0.3;" x="191.032212" xlink:href="#m488ea021c1" y="127.49914"/>
     <use style="fill:#1f77b4;stroke:#1f77b4;stroke-width:0.3;" x="84.047198" xlink:href="#m488ea021c1" y="133.535433"/>
     <use style="fill:#1f77b4;stroke:#1f77b4;stroke-width:0.3;" x="172.549715" xlink:href="#m488ea021c1" y="147.692011"/>
     <use style="fill:#1f77b4;stroke:#1f77b4;stroke-width:0.3;" x="229.787211" xlink:href="#m488ea021c1" y="256.072288"/>
     <use style="fill:#1f77b4;stroke:#1f77b4;stroke-width:0.3;" x="173.839227" xlink:href="#m488ea021c1" y="145.853933"/>
     <use style="fill:#1f77b4;stroke:#1f77b4;stroke-width:0.3;" x="505.907309" xlink:href="#m488ea021c1" y="317.327632"/>
     <use style="fill:#1f77b4;stroke:#1f77b4;stroke-width:0.3;" x="610.550301" xlink:href="#m488ea021c1" y="269.384475"/>
     <use style="fill:#1f77b4;stroke:#1f77b4;stroke-width:0.3;" x="135.462797" xlink:href="#m488ea021c1" y="222.122948"/>
    </g>
   </g>
   <g id="matplotlib.axis_1">
    <g id="xtick_1">
     <g id="line2d_1">
      <defs>
       <path d="M 0 0 
L 0 3.5 
" id="m983800fc20" style="stroke:#000000;"/>
      </defs>
      <g>
       <use style="stroke:#000000;" x="85.396655" xlink:href="#m983800fc20" y="700.3"/>
      </g>
     </g>
    </g>
    <g id="xtick_2">
     <g id="line2d_2">
      <g>
       <use style="stroke:#000000;" x="182.792178" xlink:href="#m983800fc20" y="700.3"/>
      </g>
     </g>
    </g>
    <g id="xtick_3">
     <g id="line2d_3">
      <g>
       <use style="stroke:#000000;" x="280.187702" xlink:href="#m983800fc20" y="700.3"/>
      </g>
     </g>
    </g>
    <g id="xtick_4">
     <g id="line2d_4">
      <g>
       <use style="stroke:#000000;" x="377.583225" xlink:href="#m983800fc20" y="700.3"/>
      </g>
     </g>
    </g>
    <g id="xtick_5">
     <g id="line2d_5">
      <g>
       <use style="stroke:#000000;" x="474.978749" xlink:href="#m983800fc20" y="700.3"/>
      </g>
     </g>
    </g>
    <g id="xtick_6">
     <g id="line2d_6">
      <g>
       <use style="stroke:#000000;" x="572.374273" xlink:href="#m983800fc20" y="700.3"/>
      </g>
     </g>
    </g>
    <g id="xtick_7">
     <g id="line2d_7">
      <g>
       <use style="stroke:#000000;" x="669.769796" xlink:href="#m983800fc20" y="700.3"/>
      </g>
     </g>
    </g>
   </g>
   <g id="matplotlib.axis_2">
    <g id="ytick_1">
     <g id="line2d_8">
      <defs>
       <path d="M 0 0 
L -3.5 0 
" id="m4c566a0c4f" style="stroke:#000000;"/>
      </defs>
      <g>
       <use style="stroke:#000000;" x="19.7" xlink:href="#m4c566a0c4f" y="670.146106"/>
      </g>
     </g>
    </g>
    <g id="ytick_2">
     <g id="line2d_9">
      <g>
       <use style="stroke:#000000;" x="19.7" xlink:href="#m4c566a0c4f" y="578.739978"/>
      </g>
     </g>
    </g>
    <g id="ytick_3">
     <g id="line2d_10">
      <g>
       <use style="stroke:#000000;" x="19.7" xlink:href="#m4c566a0c4f" y="487.33385"/>
      </g>
     </g>
    </g>
    <g id="ytick_4">
     <g id="line2d_11">
      <g>
       <use style="stroke:#000000;" x="19.7" xlink:href="#m4c566a0c4f" y="395.927722"/>
      </g>
     </g>
    </g>
    <g id="ytick_5">
     <g id="line2d_12">
      <g>
       <use style="stroke:#000000;" x="19.7" xlink:href="#m4c566a0c4f" y="304.521594"/>
      </g>
     </g>
    </g>
    <g id="ytick_6">
     <g id="line2d_13">
      <g>
       <use style="stroke:#000000;" x="19.7" xlink:href="#m4c566a0c4f" y="213.115466"/>
      </g>
     </g>
    </g>
    <g id="ytick_7">
     <g id="line2d_14">
      <g>
       <use style="stroke:#000000;" x="19.7" xlink:href="#m4c566a0c4f" y="121.709337"/>
      </g>
     </g>
    </g>
   </g>
   <g id="patch_3">
    <path d="M 19.7 700.3 
L 19.7 56.4 
" style="fill:none;stroke:#000000;stroke-linecap:square;stroke-linejoin:miter;stroke-width:0.8;"/>
   </g>
   <g id="patch_4">
    <path d="M 703.8 700.3 
L 703.8 56.4 
" style="fill:none;stroke:#000000;stroke-linecap:square;stroke-linejoin:miter;stroke-width:0.8;"/>
   </g>
   <g id="patch_5">
    <path d="M 19.7 700.3 
L 703.8 700.3 
" style="fill:none;stroke:#000000;stroke-linecap:square;stroke-linejoin:miter;stroke-width:0.8;"/>
   </g>
   <g id="patch_6">
    <path d="M 19.7 56.4 
L 703.8 56.4 
" style="fill:none;stroke:#000000;stroke-linecap:square;stroke-linejoin:miter;stroke-width:0.8;"/>
   </g>
  </g>
  <g id="text_1">
   <!-- Generated Dataset -->
   <g transform="translate(240.761719 33.396094)scale(0.25 -0.25)">
    <defs>
     <path d="M 59.515625 10.40625 
L 59.515625 29.984375 
L 43.40625 29.984375 
L 43.40625 38.09375 
L 69.28125 38.09375 
L 69.28125 6.78125 
Q 63.578125 2.734375 56.6875 0.65625 
Q 49.8125 -1.421875 42 -1.421875 
Q 24.90625 -1.421875 15.25 8.5625 
Q 5.609375 18.5625 5.609375 36.375 
Q 5.609375 54.25 15.25 64.234375 
Q 24.90625 74.21875 42 74.21875 
Q 49.125 74.21875 55.546875 72.453125 
Q 61.96875 70.703125 67.390625 67.28125 
L 67.390625 56.78125 
Q 61.921875 61.421875 55.765625 63.765625 
Q 49.609375 66.109375 42.828125 66.109375 
Q 29.4375 66.109375 22.71875 58.640625 
Q 16.015625 51.171875 16.015625 36.375 
Q 16.015625 21.625 22.71875 14.15625 
Q 29.4375 6.6875 42.828125 6.6875 
Q 48.046875 6.6875 52.140625 7.59375 
Q 56.25 8.5 59.515625 10.40625 
z
" id="DejaVuSans-71"/>
     <path d="M 56.203125 29.59375 
L 56.203125 25.203125 
L 14.890625 25.203125 
Q 15.484375 15.921875 20.484375 11.0625 
Q 25.484375 6.203125 34.421875 6.203125 
Q 39.59375 6.203125 44.453125 7.46875 
Q 49.3125 8.734375 54.109375 11.28125 
L 54.109375 2.78125 
Q 49.265625 0.734375 44.1875 -0.34375 
Q 39.109375 -1.421875 33.890625 -1.421875 
Q 20.796875 -1.421875 13.15625 6.1875 
Q 5.515625 13.8125 5.515625 26.8125 
Q 5.515625 40.234375 12.765625 48.109375 
Q 20.015625 56 32.328125 56 
Q 43.359375 56 49.78125 48.890625 
Q 56.203125 41.796875 56.203125 29.59375 
z
M 47.21875 32.234375 
Q 47.125 39.59375 43.09375 43.984375 
Q 39.0625 48.390625 32.421875 48.390625 
Q 24.90625 48.390625 20.390625 44.140625 
Q 15.875 39.890625 15.1875 32.171875 
z
" id="DejaVuSans-101"/>
     <path d="M 54.890625 33.015625 
L 54.890625 0 
L 45.90625 0 
L 45.90625 32.71875 
Q 45.90625 40.484375 42.875 44.328125 
Q 39.84375 48.1875 33.796875 48.1875 
Q 26.515625 48.1875 22.3125 43.546875 
Q 18.109375 38.921875 18.109375 30.90625 
L 18.109375 0 
L 9.078125 0 
L 9.078125 54.6875 
L 18.109375 54.6875 
L 18.109375 46.1875 
Q 21.34375 51.125 25.703125 53.5625 
Q 30.078125 56 35.796875 56 
Q 45.21875 56 50.046875 50.171875 
Q 54.890625 44.34375 54.890625 33.015625 
z
" id="DejaVuSans-110"/>
     <path d="M 41.109375 46.296875 
Q 39.59375 47.171875 37.8125 47.578125 
Q 36.03125 48 33.890625 48 
Q 26.265625 48 22.1875 43.046875 
Q 18.109375 38.09375 18.109375 28.8125 
L 18.109375 0 
L 9.078125 0 
L 9.078125 54.6875 
L 18.109375 54.6875 
L 18.109375 46.1875 
Q 20.953125 51.171875 25.484375 53.578125 
Q 30.03125 56 36.53125 56 
Q 37.453125 56 38.578125 55.875 
Q 39.703125 55.765625 41.0625 55.515625 
z
" id="DejaVuSans-114"/>
     <path d="M 34.28125 27.484375 
Q 23.390625 27.484375 19.1875 25 
Q 14.984375 22.515625 14.984375 16.5 
Q 14.984375 11.71875 18.140625 8.90625 
Q 21.296875 6.109375 26.703125 6.109375 
Q 34.1875 6.109375 38.703125 11.40625 
Q 43.21875 16.703125 43.21875 25.484375 
L 43.21875 27.484375 
z
M 52.203125 31.203125 
L 52.203125 0 
L 43.21875 0 
L 43.21875 8.296875 
Q 40.140625 3.328125 35.546875 0.953125 
Q 30.953125 -1.421875 24.3125 -1.421875 
Q 15.921875 -1.421875 10.953125 3.296875 
Q 6 8.015625 6 15.921875 
Q 6 25.140625 12.171875 29.828125 
Q 18.359375 34.515625 30.609375 34.515625 
L 43.21875 34.515625 
L 43.21875 35.40625 
Q 43.21875 41.609375 39.140625 45 
Q 35.0625 48.390625 27.6875 48.390625 
Q 23 48.390625 18.546875 47.265625 
Q 14.109375 46.140625 10.015625 43.890625 
L 10.015625 52.203125 
Q 14.9375 54.109375 19.578125 55.046875 
Q 24.21875 56 28.609375 56 
Q 40.484375 56 46.34375 49.84375 
Q 52.203125 43.703125 52.203125 31.203125 
z
" id="DejaVuSans-97"/>
     <path d="M 18.3125 70.21875 
L 18.3125 54.6875 
L 36.8125 54.6875 
L 36.8125 47.703125 
L 18.3125 47.703125 
L 18.3125 18.015625 
Q 18.3125 11.328125 20.140625 9.421875 
Q 21.96875 7.515625 27.59375 7.515625 
L 36.8125 7.515625 
L 36.8125 0 
L 27.59375 0 
Q 17.1875 0 13.234375 3.875 
Q 9.28125 7.765625 9.28125 18.015625 
L 9.28125 47.703125 
L 2.6875 47.703125 
L 2.6875 54.6875 
L 9.28125 54.6875 
L 9.28125 70.21875 
z
" id="DejaVuSans-116"/>
     <path d="M 45.40625 46.390625 
L 45.40625 75.984375 
L 54.390625 75.984375 
L 54.390625 0 
L 45.40625 0 
L 45.40625 8.203125 
Q 42.578125 3.328125 38.25 0.953125 
Q 33.9375 -1.421875 27.875 -1.421875 
Q 17.96875 -1.421875 11.734375 6.484375 
Q 5.515625 14.40625 5.515625 27.296875 
Q 5.515625 40.1875 11.734375 48.09375 
Q 17.96875 56 27.875 56 
Q 33.9375 56 38.25 53.625 
Q 42.578125 51.265625 45.40625 46.390625 
z
M 14.796875 27.296875 
Q 14.796875 17.390625 18.875 11.75 
Q 22.953125 6.109375 30.078125 6.109375 
Q 37.203125 6.109375 41.296875 11.75 
Q 45.40625 17.390625 45.40625 27.296875 
Q 45.40625 37.203125 41.296875 42.84375 
Q 37.203125 48.484375 30.078125 48.484375 
Q 22.953125 48.484375 18.875 42.84375 
Q 14.796875 37.203125 14.796875 27.296875 
z
" id="DejaVuSans-100"/>
     <path id="DejaVuSans-32"/>
     <path d="M 19.671875 64.796875 
L 19.671875 8.109375 
L 31.59375 8.109375 
Q 46.6875 8.109375 53.6875 14.9375 
Q 60.6875 21.78125 60.6875 36.53125 
Q 60.6875 51.171875 53.6875 57.984375 
Q 46.6875 64.796875 31.59375 64.796875 
z
M 9.8125 72.90625 
L 30.078125 72.90625 
Q 51.265625 72.90625 61.171875 64.09375 
Q 71.09375 55.28125 71.09375 36.53125 
Q 71.09375 17.671875 61.125 8.828125 
Q 51.171875 0 30.078125 0 
L 9.8125 0 
z
" id="DejaVuSans-68"/>
     <path d="M 44.28125 53.078125 
L 44.28125 44.578125 
Q 40.484375 46.53125 36.375 47.5 
Q 32.28125 48.484375 27.875 48.484375 
Q 21.1875 48.484375 17.84375 46.4375 
Q 14.5 44.390625 14.5 40.28125 
Q 14.5 37.15625 16.890625 35.375 
Q 19.28125 33.59375 26.515625 31.984375 
L 29.59375 31.296875 
Q 39.15625 29.25 43.1875 25.515625 
Q 47.21875 21.78125 47.21875 15.09375 
Q 47.21875 7.46875 41.1875 3.015625 
Q 35.15625 -1.421875 24.609375 -1.421875 
Q 20.21875 -1.421875 15.453125 -0.5625 
Q 10.6875 0.296875 5.421875 2 
L 5.421875 11.28125 
Q 10.40625 8.6875 15.234375 7.390625 
Q 20.0625 6.109375 24.8125 6.109375 
Q 31.15625 6.109375 34.5625 8.28125 
Q 37.984375 10.453125 37.984375 14.40625 
Q 37.984375 18.0625 35.515625 20.015625 
Q 33.0625 21.96875 24.703125 23.78125 
L 21.578125 24.515625 
Q 13.234375 26.265625 9.515625 29.90625 
Q 5.8125 33.546875 5.8125 39.890625 
Q 5.8125 47.609375 11.28125 51.796875 
Q 16.75 56 26.8125 56 
Q 31.78125 56 36.171875 55.265625 
Q 40.578125 54.546875 44.28125 53.078125 
z
" id="DejaVuSans-115"/>
    </defs>
    <use xlink:href="#DejaVuSans-71"/>
    <use x="77.490234" xlink:href="#DejaVuSans-101"/>
    <use x="139.013672" xlink:href="#DejaVuSans-110"/>
    <use x="202.392578" xlink:href="#DejaVuSans-101"/>
    <use x="263.916016" xlink:href="#DejaVuSans-114"/>
    <use x="305.029297" xlink:href="#DejaVuSans-97"/>
    <use x="366.308594" xlink:href="#DejaVuSans-116"/>
    <use x="405.517578" xlink:href="#DejaVuSans-101"/>
    <use x="467.041016" xlink:href="#DejaVuSans-100"/>
    <use x="530.517578" xlink:href="#DejaVuSans-32"/>
    <use x="562.304688" xlink:href="#DejaVuSans-68"/>
    <use x="639.306641" xlink:href="#DejaVuSans-97"/>
    <use x="700.585938" xlink:href="#DejaVuSans-116"/>
    <use x="739.794922" xlink:href="#DejaVuSans-97"/>
    <use x="801.074219" xlink:href="#DejaVuSans-115"/>
    <use x="853.173828" xlink:href="#DejaVuSans-101"/>
    <use x="914.697266" xlink:href="#DejaVuSans-116"/>
   </g>
  </g>
 </g>
 <defs>
  <clipPath id="p6e77cccd5a">
   <rect height="643.9" width="684.1" x="19.7" y="56.4"/>
  </clipPath>
 </defs>
</svg>
